<svg width="223" height="179" viewBox="0 0 223 179" fill="none" xmlns="http://www.w3.org/2000/svg">
<path fill-rule="evenodd" clip-rule="evenodd" d="M149.269 35.5C181.869 55.6 201.969 86.4 198.069 113.6C193.769 143.9 161.469 160.2 117.369 150.3C71.569 140 34.669 106.6 28.369 71.4C22.669 39.6 44.669 18.2 79.969 16.3L70.569 0C25.169 1.7 -4.93099 28.1 0.669012 69.2C7.06901 116.2 55.969 161.6 117.869 174.8C176.569 187.3 217.869 164.2 221.769 123.7C225.169 88.5 198.769 49.8 157.769 24.6L149.269 35.5Z" fill="#2B3336"/>
<path fill-rule="evenodd" clip-rule="evenodd" d="M59.5689 83.4001C48.8689 60.2001 58.4689 41.3001 80.9689 35.4001C101.469 30.0001 127.869 36.9001 148.269 52.6001C169.369 68.8001 179.569 90.9001 172.569 108.4C164.669 127.9 138.269 135.2 107.369 124.1L103.969 140.3C145.269 154.9 179.769 144.2 188.869 117.7C196.769 94.8001 182.869 66.7001 156.169 46.4001C130.469 26.9001 97.3689 18.0001 71.1689 24.2001C41.7689 31.2001 27.8689 55.2001 40.7689 85.6001L59.5689 83.4001Z" fill="#D22626"/>
<path fill-rule="evenodd" clip-rule="evenodd" d="M131.669 58.6998C144.769 67.0998 152.769 79.4998 151.369 90.5998C149.869 103 137.569 110 119.869 107C101.369 103.8 85.469 91.1998 80.869 76.4998C76.669 63.1998 83.669 53.1998 97.169 50.5998L91.869 43.7998C74.269 46.6998 64.369 59.1998 69.169 76.5998C74.569 96.1998 95.869 113.4 120.869 117.4C144.369 121.2 160.069 111.3 161.269 94.7998C162.369 80.3998 151.869 64.7998 135.369 54.2998L131.669 58.6998Z" fill="#2B3336"/>
<path fill-rule="evenodd" clip-rule="evenodd" d="M101.069 74.9999C100.769 70.0999 104.169 66.9999 109.669 66.3999C114.869 65.8999 120.669 67.7999 125.269 71.4999C130.069 75.2999 132.469 80.0999 131.469 84.3999C130.369 88.9999 125.669 91.4999 118.869 90.5999L119.969 97.7999C130.369 98.9999 137.169 94.7999 138.369 87.5999C139.369 81.2999 135.669 74.2999 128.769 68.9999C122.169 63.7999 113.969 61.0999 106.569 61.5999C98.469 62.1999 93.069 66.6 92.969 73.7L101.069 74.9999Z" fill="#D22626"/>
</svg>
