<?xml version="1.0" standalone="no"?>
<!DOCTYPE svg PUBLIC "-//W3C//DTD SVG 20010904//EN"
 "http://www.w3.org/TR/2001/REC-SVG-20010904/DTD/svg10.dtd">
<svg version="1.0" xmlns="http://www.w3.org/2000/svg"
 width="960.000000pt" height="1280.000000pt" viewBox="0 0 960.000000 1280.000000"
 preserveAspectRatio="xMidYMid meet">

<g transform="translate(0.000000,1280.000000) scale(0.100000,-0.100000)"
fill="#000000" stroke="none">
<path d="M0 6400 l0 -6400 4800 0 4800 0 0 6400 0 6400 -4800 0 -4800 0 0
-6400z m4980 3965 c-6 -8 -9 -23 -5 -34 3 -10 1 -22 -5 -26 -5 -3 -10 -12 -10
-18 0 -7 4 -6 10 3 13 21 23 5 16 -25 -6 -24 -8 -24 -23 -10 -12 13 -14 28 -9
76 4 34 12 73 19 87 l11 27 4 -33 c2 -18 -2 -40 -8 -47z m1420 47 c0 -15 -26
-43 -42 -45 -20 -3 -88 -49 -88 -60 0 -4 11 0 25 9 14 9 25 13 25 9 0 -4 7 -2
15 5 9 7 15 8 15 2 0 -5 -23 -24 -50 -42 -60 -39 -82 -70 -49 -70 18 0 19 -2
9 -15 -15 -18 -43 -19 -70 -2 -17 10 -22 9 -29 -1 -5 -8 -24 -14 -43 -14 -46
0 -69 -14 -48 -28 13 -9 13 -11 0 -20 -24 -16 -53 -12 -46 5 5 13 2 13 -25 0
-36 -19 -69 -51 -69 -66 0 -8 12 -10 34 -6 18 3 38 1 44 -5 7 -7 17 -6 30 1
29 15 52 14 52 -4 0 -22 46 -19 71 6 13 13 30 19 47 17 30 -3 152 32 152 45 0
4 7 7 15 7 17 0 20 -16 5 -25 -5 -3 -10 -17 -10 -30 0 -13 -8 -29 -17 -34 -17
-10 -17 -10 0 -11 9 0 17 5 17 10 0 12 60 13 78 1 10 -6 8 -10 -10 -14 -21 -6
-22 -7 -6 -23 15 -15 19 -15 34 -3 9 8 25 13 36 11 10 -2 18 2 18 7 0 6 14 11
30 11 20 0 30 -5 30 -15 0 -8 7 -15 15 -15 8 0 15 -4 15 -10 0 -5 -4 -10 -10
-10 -5 0 -10 -4 -10 -9 0 -6 19 -11 42 -13 l43 -3 -53 -38 c-29 -21 -73 -48
-98 -59 -48 -24 -56 -38 -22 -38 17 0 19 -3 10 -12 -7 -7 -12 -16 -12 -20 0
-12 38 -10 45 2 9 15 145 13 145 -2 0 -9 -18 -14 -51 -15 -29 -1 -54 -5 -58
-8 -8 -9 28 -34 42 -30 7 3 36 6 65 9 48 4 54 2 72 -24 24 -34 25 -40 5 -40
-8 0 -15 -4 -15 -10 0 -5 7 -10 15 -10 21 0 19 -17 -4 -29 -15 -8 -20 -7 -25
5 -4 10 -16 14 -33 12 -31 -3 -35 -21 -6 -26 10 -2 27 -7 38 -12 17 -8 59 -15
125 -21 8 -1 22 -7 30 -14 8 -7 24 -15 35 -17 16 -3 13 -7 -18 -22 -20 -10
-39 -22 -42 -26 -6 -10 14 -26 40 -33 12 -3 7 -5 -15 -6 -47 -2 -66 -14 -47
-30 8 -6 19 -11 23 -10 5 1 17 1 28 0 15 -1 16 -4 6 -16 -17 -21 -4 -32 20
-17 12 7 21 8 25 2 3 -6 17 -7 31 -4 30 8 34 -20 5 -38 -10 -6 -17 -17 -14
-25 3 -7 -3 -16 -13 -19 -11 -3 -35 -13 -54 -22 -30 -14 -32 -17 -13 -20 17
-2 21 -9 19 -30 -2 -14 -8 -28 -15 -30 -6 -2 -11 -10 -11 -17 0 -8 -9 -17 -20
-20 -32 -10 -23 -25 15 -25 19 0 35 4 35 10 0 13 75 50 110 55 41 5 80 36 74
58 -6 18 12 24 18 6 3 -8 25 -7 79 2 44 7 84 9 95 4 18 -8 18 -9 -3 -12 -13
-3 -23 -10 -23 -18 0 -16 -53 -25 -75 -12 -21 11 -75 -1 -82 -19 -3 -8 -9 -11
-14 -9 -4 3 -17 -3 -28 -14 -11 -11 -32 -23 -46 -27 -14 -3 -25 -10 -25 -15 0
-5 -16 -9 -35 -9 -23 0 -35 -5 -35 -14 0 -18 -34 -26 -89 -21 -34 4 -39 3 -21
-4 22 -7 23 -9 8 -16 -26 -11 -22 -23 10 -27 25 -3 24 -4 -21 -28 -60 -30 -70
-44 -27 -38 23 3 34 0 38 -11 3 -8 17 -25 31 -37 l26 -23 -25 -10 c-17 -6 -19
-10 -8 -10 17 -1 45 -38 40 -53 -1 -5 3 -8 9 -8 5 0 7 -5 4 -10 -4 -6 -10 -8
-15 -5 -5 3 -11 1 -15 -5 -3 -5 0 -10 8 -10 9 0 14 -11 14 -30 0 -22 -5 -30
-19 -30 -20 0 -24 -16 -5 -23 6 -3 -28 -6 -76 -6 -79 -1 -87 -3 -73 -16 10
-10 24 -13 41 -9 15 4 25 2 25 -4 0 -6 16 -14 35 -18 28 -5 35 -11 35 -30 0
-22 50 -80 96 -111 14 -9 20 -21 17 -33 -6 -23 -28 -25 -63 -5 -34 19 -70 19
-70 0 0 -9 11 -21 25 -27 14 -6 25 -15 25 -19 0 -4 8 -10 18 -13 9 -3 25 -21
35 -38 l19 -33 -30 29 c-17 15 -35 25 -40 22 -5 -3 -15 1 -22 9 -14 17 -40 20
-40 5 0 -5 7 -10 15 -10 21 0 30 -27 16 -44 -14 -16 1 -30 42 -40 18 -4 27 -2
27 5 0 7 8 5 20 -6 18 -16 18 -20 5 -46 -21 -39 -20 -41 19 -34 21 4 36 2 41
-5 11 -18 -1 -23 -24 -10 -14 7 -21 7 -21 0 0 -5 5 -10 11 -10 5 0 7 -5 3 -12
-5 -8 -2 -9 10 -5 10 4 24 1 32 -8 13 -12 10 -14 -20 -11 -31 2 -34 0 -25 -17
13 -24 4 -34 -16 -17 -30 25 -27 0 4 -31 25 -25 29 -34 19 -41 -11 -8 -11 -10
1 -15 22 -9 46 -42 47 -66 1 -12 4 -34 8 -49 7 -24 6 -26 -16 -21 -12 3 -31
13 -40 21 -28 24 -95 32 -110 14 -10 -12 -10 -16 0 -19 18 -7 15 -23 -5 -23
-14 -1 -12 -6 11 -24 33 -28 27 -51 -11 -41 -28 7 -23 -10 9 -33 27 -19 22
-29 -17 -36 -35 -7 -58 -26 -31 -26 9 0 16 -5 16 -11 0 -7 -10 -9 -24 -7 -18
4 -23 1 -19 -9 4 -10 14 -12 30 -8 20 5 26 0 42 -37 18 -42 17 -78 -1 -78 -8
0 -19 7 -51 36 -7 6 -19 9 -27 6 -8 -3 -12 -1 -8 2 3 4 -8 21 -25 37 -20 18
-26 29 -17 29 32 0 -26 26 -65 29 -52 3 -59 11 -9 11 33 1 36 3 23 13 -9 7
-14 17 -12 23 2 7 -12 15 -32 18 -19 4 -33 11 -30 15 2 5 -2 14 -10 21 -8 7
-15 22 -15 34 0 11 -5 28 -10 36 -7 11 -5 17 8 21 18 7 18 7 -30 23 -11 3 -18
15 -18 30 0 14 -5 28 -11 31 -5 4 -15 18 -20 32 -6 16 -14 23 -24 19 -8 -3
-15 -1 -15 4 0 5 11 12 25 16 32 8 27 29 -7 29 -18 -1 -24 4 -20 14 4 11 1 13
-12 8 -14 -6 -17 -3 -12 9 3 8 6 25 6 35 0 15 6 19 21 17 32 -5 48 26 26 50
-17 19 -17 20 5 25 22 6 22 6 3 27 -16 18 -17 23 -5 30 12 8 11 10 -6 10 -11
0 -29 7 -40 15 -19 14 -19 15 4 21 12 3 22 14 22 24 0 22 -66 42 -123 39 -35
-3 -42 0 -41 14 1 10 -4 16 -11 15 -14 -3 -15 -1 -15 33 0 17 4 20 28 14 16
-3 39 -2 53 4 l24 9 -30 7 c-16 4 -43 11 -59 16 -41 13 -56 11 -50 -5 3 -8 0
-17 -5 -21 -6 -3 -8 -12 -4 -18 4 -7 0 -6 -10 2 -9 7 -17 18 -17 24 0 6 -7 18
-16 28 -14 16 -14 18 5 24 12 3 19 10 16 15 -3 5 3 11 14 15 11 3 22 13 25 21
5 13 3 13 -22 0 -15 -8 -40 -18 -56 -21 -21 -5 -26 -9 -17 -15 22 -13 -22 -22
-54 -10 -14 5 -31 8 -36 4 -5 -3 -9 0 -9 5 0 6 -9 11 -21 11 -11 0 -17 5 -14
10 3 6 16 10 28 10 20 1 20 2 5 11 -22 13 -23 29 -2 29 9 0 14 5 12 12 -7 21
-26 20 -33 -3 -15 -45 -103 -114 -134 -104 -11 3 -24 -4 -39 -25 -12 -16 -22
-34 -22 -39 0 -5 -5 -13 -12 -17 -8 -5 -9 0 -5 15 4 16 2 21 -8 18 -7 -3 -17
-1 -22 4 -6 6 -15 4 -24 -7 -12 -15 -12 -16 9 -10 28 9 30 -9 2 -24 -15 -8
-20 -8 -21 2 0 7 -7 -9 -14 -36 -25 -90 -61 -99 -72 -17 -3 22 -10 41 -15 41
-6 0 -8 -9 -5 -20 3 -10 -1 -24 -9 -31 -8 -6 -14 -21 -14 -33 0 -12 -5 -27
-12 -34 -7 -7 -8 -12 -2 -12 13 0 41 34 47 57 4 16 5 16 6 -2 0 -11 -7 -31
-16 -45 -16 -22 -16 -23 0 -17 11 4 17 1 17 -8 0 -8 -4 -15 -9 -15 -5 0 -12
-8 -16 -19 -6 -20 -34 -23 -48 -6 -5 6 -7 5 -5 -3 2 -8 6 -12 9 -10 10 6 40
-32 34 -42 -11 -17 -19 -11 -43 31 -23 39 -23 41 -5 55 14 12 15 16 4 21 -11
5 -11 7 0 14 10 6 10 9 2 9 -7 0 -24 -20 -39 -45 -14 -25 -31 -42 -36 -38 -6
3 -9 2 -5 -3 3 -5 -1 -20 -9 -34 -7 -14 -13 -19 -14 -12 0 6 -4 12 -10 12 -5
0 -10 -12 -9 -27 0 -16 3 -22 6 -15 6 16 23 15 23 -2 0 -8 -7 -16 -15 -20 -8
-3 -15 -17 -15 -30 0 -20 -4 -24 -17 -19 -13 5 -15 2 -10 -11 4 -10 3 -15 -3
-11 -12 7 -12 7 -1 -31 8 -29 7 -30 -19 -26 -36 5 -47 -14 -23 -40 13 -15 15
-22 5 -25 -27 -10 -44 -37 -40 -65 3 -21 0 -32 -14 -39 -22 -12 -24 -48 -3
-75 8 -10 15 -25 15 -32 0 -17 40 -51 60 -52 11 -1 9 -4 -4 -9 -18 -7 -17 -9
7 -28 20 -15 23 -23 14 -32 -8 -8 -6 -11 11 -11 26 0 29 21 6 55 -22 33 -7 32
29 -2 l28 -28 18 24 c13 17 23 22 39 16 18 -5 22 -2 22 14 0 13 -9 21 -30 26
-16 4 -30 11 -30 16 0 15 64 10 86 -6 22 -17 74 -20 74 -5 0 6 -14 13 -30 17
-22 4 -29 10 -25 22 3 9 -9 31 -30 54 -19 21 -35 43 -36 50 0 9 -2 9 -5 0 -12
-29 -45 10 -68 80 -3 10 -9 16 -14 13 -4 -2 -6 11 -4 30 2 19 8 34 13 34 5 0
15 11 21 25 17 37 30 30 58 -30 19 -42 30 -55 47 -55 13 0 24 -8 28 -20 3 -11
11 -20 17 -20 6 0 3 11 -6 25 -9 13 -16 31 -16 39 0 10 -7 12 -21 9 -18 -5
-20 -3 -12 12 10 16 7 40 -12 102 -5 16 -1 25 14 35 12 7 21 18 21 25 0 14 51
43 76 43 13 0 14 -3 4 -15 -10 -12 -10 -18 -1 -29 10 -11 8 -18 -9 -34 -12
-11 -18 -26 -15 -34 8 -21 45 -11 45 12 0 23 52 43 70 27 10 -9 11 -9 5 2 -5
9 -4 12 3 7 15 -9 16 -53 2 -61 -17 -10 -12 -63 7 -74 14 -7 15 -12 4 -24 -10
-13 -8 -18 13 -32 23 -15 28 -44 5 -29 -5 3 -25 -5 -45 -17 -31 -19 -41 -20
-71 -11 -26 8 -33 8 -25 0 6 -6 9 -16 6 -22 -5 -15 50 -52 123 -82 43 -17 77
-24 133 -24 102 0 175 34 248 116 29 32 52 62 52 67 0 4 4 6 9 2 6 -3 1 -20
-10 -40 -11 -18 -22 -53 -24 -76 -6 -52 -43 -91 -123 -126 -51 -23 -65 -25
-136 -19 -43 4 -87 11 -97 16 -27 15 -102 13 -97 -2 3 -8 25 -14 56 -15 28 -1
61 -9 74 -17 14 -9 36 -17 51 -18 17 -2 27 -8 27 -18 0 -8 10 -21 23 -29 17
-10 19 -11 10 0 -7 7 -13 18 -13 25 0 17 66 22 101 7 22 -9 36 -10 51 -2 18
10 18 9 8 -10 -8 -15 -21 -21 -48 -21 -31 -1 -34 -2 -19 -11 10 -6 25 -8 32
-5 11 4 14 -2 13 -22 -1 -15 -4 -31 -7 -37 -4 -5 -6 -17 -5 -25 1 -8 3 -26 4
-40 1 -14 4 -20 7 -13 8 20 55 -30 47 -50 -3 -9 -12 -17 -19 -17 -8 0 -17 -5
-21 -11 -4 -7 4 -10 23 -8 17 2 41 -5 58 -17 36 -25 60 -34 100 -40 30 -3 65
-35 65 -59 0 -10 -16 -12 -52 -6 -13 2 -9 29 5 34 6 2 -4 4 -23 3 -26 -1 -36
-6 -38 -21 -3 -20 -3 -20 13 0 16 20 16 19 10 -5 -4 -20 2 -31 33 -58 37 -31
39 -35 34 -78 -3 -34 -2 -44 9 -42 7 2 13 -1 14 -7 0 -5 6 -20 13 -32 7 -12
12 -26 11 -30 -3 -19 2 -33 12 -33 5 0 7 5 4 10 -3 6 1 10 10 10 11 0 15 -6
12 -17 -2 -10 2 -30 10 -45 9 -19 10 -42 4 -85 -5 -32 -9 -46 -10 -31 -2 41
-11 57 -29 51 -14 -4 -14 -3 -3 5 8 6 21 8 29 4 9 -3 13 0 11 7 -3 7 -9 12
-14 12 -6 0 -14 10 -19 22 -9 21 -9 21 -14 2 -2 -11 -9 -23 -14 -26 -5 -3 -2
-23 8 -47 9 -23 19 -40 23 -38 3 2 6 -11 7 -29 0 -19 -3 -32 -8 -29 -4 3 -8
-13 -8 -36 0 -25 -4 -39 -10 -35 -5 3 -10 24 -10 45 0 21 -5 51 -11 67 -9 25
-12 26 -20 11 -7 -12 -7 -30 0 -53 5 -19 6 -37 1 -40 -4 -3 -7 -30 -5 -61 3
-47 2 -54 -11 -43 -8 6 -14 23 -14 38 0 14 -7 34 -14 44 -13 16 -14 14 -20
-25 -3 -24 -6 -51 -7 -61 0 -10 -6 -16 -12 -14 -7 2 -11 16 -9 30 3 21 0 26
-13 21 -10 -4 -15 -2 -13 7 2 7 -5 15 -14 17 -25 5 -23 -23 2 -41 19 -13 19
-15 4 -21 -11 -4 -14 -13 -10 -29 4 -16 1 -24 -8 -24 -8 0 -12 7 -9 16 2 9 -5
0 -16 -19 l-19 -35 -11 28 c-11 29 -26 35 -34 15 -4 -9 -6 -7 -6 3 -1 10 -9
15 -23 14 -25 -2 -38 -25 -13 -25 9 0 13 -4 10 -10 -9 -15 -37 -12 -75 9 -20
10 -56 19 -80 19 -66 1 -70 1 -70 11 0 5 9 7 20 4 29 -8 24 15 -8 35 -18 11
-26 24 -24 35 3 15 0 18 -15 13 -13 -4 -26 1 -38 14 -10 11 -23 20 -28 20 -6
0 -2 -9 7 -19 10 -11 15 -24 11 -30 -3 -7 0 -8 9 -5 8 3 19 -3 26 -15 12 -24
8 -26 -20 -9 -10 7 -22 9 -25 6 -9 -9 18 -48 33 -48 7 0 11 -4 8 -9 -3 -5 1
-14 9 -21 8 -7 15 -19 15 -26 0 -8 12 -19 26 -24 19 -7 25 -16 21 -29 -7 -27
8 -46 55 -74 39 -22 52 -24 156 -22 61 1 112 -2 112 -7 0 -5 -27 -8 -60 -7
-33 1 -64 -1 -68 -5 -4 -4 19 -32 51 -63 31 -30 57 -58 57 -62 0 -4 11 -18 25
-31 14 -13 25 -28 25 -34 0 -6 -14 5 -30 24 -81 95 -183 181 -197 166 -9 -8
24 -43 64 -67 18 -11 33 -25 33 -31 0 -5 9 -23 21 -39 11 -16 18 -29 14 -29
-3 0 3 -17 14 -37 11 -21 26 -54 34 -73 8 -19 27 -61 41 -93 36 -81 50 -219
32 -295 -8 -29 -7 -32 10 -26 17 6 17 4 -2 -16 -28 -29 -44 -18 -44 30 0 21
-4 42 -10 45 -6 4 -10 -6 -10 -23 0 -31 -8 -45 -21 -36 -5 3 -5 13 0 22 6 12
5 26 -5 42 -13 25 -13 25 -14 -11 0 -20 -3 -38 -6 -42 -3 -3 -22 3 -41 14 -20
11 -37 18 -39 17 -2 -2 4 -35 12 -73 15 -67 19 -124 9 -134 -3 -2 -5 9 -5 25
0 22 -3 26 -10 14 -16 -25 -12 -101 8 -123 12 -15 14 -21 5 -24 -23 -8 -13
-19 38 -42 36 -17 47 -26 38 -32 -17 -10 -13 -13 39 -28 24 -7 64 -25 89 -42
26 -16 53 -29 60 -29 17 0 130 -56 137 -69 3 -5 0 -14 -8 -20 -10 -8 -27 -4
-71 18 -32 16 -105 44 -162 62 -56 18 -112 41 -123 51 -22 21 -60 17 -60 -6 0
-7 25 -39 55 -71 30 -31 55 -65 55 -75 0 -18 64 -75 113 -99 32 -17 35 -37 7
-44 -12 -3 -20 -14 -20 -26 0 -14 -5 -19 -15 -15 -28 11 -6 -38 35 -76 57 -53
53 -64 -21 -55 -43 5 -68 3 -85 -6 -23 -12 -23 -13 -7 -31 16 -17 15 -18 -18
-12 -19 4 -43 13 -54 21 -26 17 -61 17 -68 -2 -8 -18 7 -27 36 -23 15 2 33 -9
56 -32 31 -33 32 -35 12 -38 -12 -2 -21 -7 -21 -11 0 -8 83 -71 118 -90 25
-13 30 -41 6 -41 -8 0 -24 5 -35 11 -14 7 -30 6 -57 -3 -49 -16 -48 -16 -26
-33 18 -15 18 -15 -6 -14 -62 5 -66 1 -35 -31 16 -17 51 -45 77 -61 50 -33 62
-59 27 -59 -15 0 -19 -5 -14 -19 10 -31 -26 -37 -51 -8 -31 36 -68 58 -107 63
-43 5 -67 -17 -46 -42 15 -19 39 -81 39 -105 0 -9 9 -28 20 -42 11 -14 20 -38
20 -53 0 -15 16 -56 35 -91 20 -36 33 -68 30 -73 -3 -5 -1 -19 5 -30 13 -24 5
-26 -17 -4 -11 10 -26 14 -47 10 -18 -3 -38 0 -47 7 -15 11 -15 15 -3 32 19
26 18 40 -2 21 -8 -9 -22 -16 -30 -16 -28 0 -95 41 -103 63 -5 12 -18 33 -30
46 -17 19 -23 21 -35 12 -12 -10 -19 -5 -41 27 -15 22 -39 45 -53 51 -15 6
-41 24 -58 40 -17 16 -46 36 -64 46 -19 10 -40 24 -48 31 -11 12 -16 11 -33
-4 -18 -17 -18 -21 -4 -49 16 -33 60 -67 74 -59 4 3 21 -8 36 -24 16 -17 36
-30 44 -30 16 0 81 -58 81 -72 0 -5 -13 -2 -30 7 -31 16 -96 22 -72 6 11 -6
10 -10 -5 -15 -17 -7 -17 -9 5 -26 20 -16 30 -40 17 -40 -3 0 -24 12 -48 28
-36 23 -51 27 -107 25 -79 -2 -128 -11 -158 -31 l-23 -15 23 -11 c13 -7 25 -8
26 -4 5 10 32 11 32 0 0 -4 10 -12 23 -17 13 -6 22 -19 21 -31 0 -16 5 -19 26
-16 20 3 35 -6 71 -45 25 -26 63 -60 85 -75 60 -42 80 -88 38 -88 -11 0 -13
-9 -11 -36 4 -32 2 -35 -17 -31 -20 5 -66 20 -111 38 -43 16 -78 19 -116 9
l-41 -11 40 -30 c22 -16 57 -46 78 -67 22 -20 57 -52 78 -70 26 -21 36 -36 30
-42 -18 -18 -69 0 -85 29 -22 38 -82 65 -126 56 -27 -5 -33 -9 -24 -18 23 -23
13 -40 -19 -33 -28 5 -30 4 -20 -14 16 -29 13 -31 -27 -24 -38 7 -38 7 -20
-14 10 -11 40 -29 66 -41 27 -11 52 -30 58 -44 9 -20 18 -24 61 -24 27 -1 59
-4 70 -7 20 -7 20 -7 -4 -33 l-24 -26 -51 24 c-49 23 -169 35 -169 17 0 -5 5
-8 12 -8 16 0 58 -41 58 -56 0 -7 20 -32 45 -56 27 -26 45 -52 45 -65 0 -13 5
-23 10 -23 6 0 10 -6 10 -14 0 -17 -30 -11 -75 15 -40 23 -132 32 -138 15 -6
-14 11 -36 26 -36 16 0 57 -50 57 -69 0 -9 16 -31 35 -48 20 -18 35 -41 35
-53 0 -19 4 -21 44 -15 37 6 47 4 66 -15 l22 -22 -54 -48 c-29 -27 -60 -49
-68 -50 -8 0 -34 -13 -56 -28 -23 -15 -57 -35 -75 -45 -31 -17 -32 -19 -14
-29 27 -14 46 -39 39 -50 -4 -5 -17 1 -31 13 -22 22 -32 23 -121 21 -71 -3
-99 -7 -105 -18 -9 -16 -37 -19 -37 -4 0 6 -5 10 -11 10 -15 0 -5 -67 16 -106
8 -16 15 -35 15 -41 0 -7 5 -13 10 -13 6 0 10 -9 10 -21 0 -17 -4 -20 -24 -15
l-24 6 23 -73 c31 -97 52 -146 81 -184 28 -37 32 -65 8 -56 -13 5 -13 7 -2 14
10 7 9 9 -5 9 -10 0 -22 11 -27 25 -6 16 -17 25 -30 25 -21 0 -60 16 -70 29
-3 4 -18 11 -35 16 -17 6 -31 19 -33 30 -3 18 -2 18 10 4 19 -24 48 -32 48
-14 0 8 -4 15 -10 15 -5 0 -10 7 -10 15 0 8 -5 15 -11 15 -6 0 -24 14 -41 31
-26 25 -29 33 -17 41 11 8 10 9 -3 4 -12 -4 -18 0 -18 11 0 12 -3 13 -14 4
-15 -13 -10 -58 9 -81 7 -8 16 -31 20 -50 4 -19 23 -52 41 -73 19 -20 34 -42
34 -47 0 -16 -24 -12 -46 8 -25 22 -98 27 -90 6 4 -9 2 -12 -5 -8 -6 3 -9 19
-7 35 3 16 0 29 -5 29 -12 0 -46 42 -47 57 0 23 -35 73 -51 73 -15 0 -15 -4
-3 -39 7 -21 22 -56 33 -77 11 -22 20 -57 19 -80 0 -23 4 -50 10 -60 5 -10 13
-39 17 -64 4 -25 11 -52 15 -59 4 -8 4 -25 -1 -38 -5 -13 -4 -25 2 -28 5 -4 7
-10 4 -15 -8 -12 -55 30 -55 48 0 8 7 20 16 27 22 16 11 65 -22 96 -20 19 -28
21 -43 12 -14 -9 -24 -7 -47 8 -35 23 -44 24 -44 4 0 -9 19 -24 44 -35 28 -12
51 -30 60 -48 18 -34 13 -42 -23 -42 -21 0 -27 -5 -29 -25 -1 -19 3 -25 18
-25 11 0 20 -4 20 -9 0 -17 -18 -22 -32 -8 -7 7 -27 19 -45 26 -28 12 -40 10
-100 -10 -74 -24 -90 -29 -100 -28 -4 0 -10 -9 -14 -20 -6 -14 -21 -22 -53
-26 -55 -9 -61 -30 -16 -63 17 -13 30 -29 30 -36 0 -8 14 -19 30 -26 17 -7 30
-16 30 -21 0 -9 -5 -8 -55 12 -16 7 -34 13 -40 15 -5 1 -44 17 -85 34 -55 23
-80 29 -95 22 -18 -8 -16 -11 20 -29 22 -12 49 -30 59 -42 11 -12 27 -21 36
-21 17 0 40 -18 40 -33 0 -5 -24 -8 -52 -7 -76 2 -78 2 -78 -17 -1 -17 -1 -17
-11 -1 -5 10 -21 18 -35 18 -16 0 -28 7 -30 18 -5 16 -17 18 -78 13 -8 -1
-181 -174 -214 -215 -7 -9 -21 -16 -32 -16 -14 0 -22 -11 -29 -38 -8 -29 -20
-44 -50 -60 -48 -27 -57 -27 -64 0 -5 17 -9 19 -21 9 -8 -7 -27 -11 -42 -9
-17 2 -28 -2 -31 -12 -4 -13 -3 -13 6 0 8 12 14 10 35 -13 l25 -27 -34 0 c-29
0 -36 4 -41 27 -9 33 -68 89 -103 97 -47 10 -91 44 -91 70 0 25 -30 44 -49 31
-6 -3 -26 1 -46 9 -35 15 -36 15 -30 -4 4 -14 2 -19 -7 -17 -7 2 -10 2 -5 0 4
-3 7 -15 7 -27 0 -12 7 -31 15 -42 8 -10 15 -29 15 -41 0 -12 9 -27 21 -33 20
-11 20 -12 2 -25 -16 -13 -17 -15 -2 -30 9 -9 23 -17 31 -19 8 -1 26 -9 40
-18 30 -20 122 -48 157 -48 15 0 31 -8 38 -20 12 -19 9 -19 -80 -22 -82 -3
-98 0 -147 23 -60 29 -144 103 -137 122 2 7 -4 19 -13 27 -23 21 -37 50 -36
80 1 18 10 29 33 40 32 15 43 30 23 30 -16 0 -11 37 7 56 10 9 18 22 19 28 0
6 2 17 2 24 1 6 10 12 19 12 33 0 83 24 83 40 0 18 45 64 73 73 9 4 17 12 17
19 0 8 28 41 63 75 35 35 70 75 77 90 8 15 24 42 36 58 11 17 31 49 43 73 12
23 26 42 31 42 5 0 21 21 35 48 14 26 29 54 34 62 33 53 78 176 84 230 2 19 7
42 10 50 3 8 5 24 5 35 -4 68 3 105 19 105 14 0 13 4 -6 24 -21 23 -23 31 -17
89 6 48 3 74 -8 102 -9 21 -16 51 -16 68 0 17 -4 44 -10 61 -5 17 -12 43 -15
59 -4 19 -12 27 -26 27 -11 0 -18 -4 -15 -9 4 -5 2 -11 -3 -13 -12 -4 -34
-135 -26 -149 4 -5 8 -56 11 -114 l5 -104 -25 -7 c-29 -7 -34 -25 -11 -44 8
-7 15 -9 15 -6 0 4 9 2 20 -4 21 -11 29 -70 10 -70 -5 0 -10 -6 -10 -14 0 -8
-11 -17 -25 -20 -34 -9 -64 -69 -48 -95 7 -11 8 -23 2 -32 -5 -8 -9 -10 -9 -5
0 6 -5 5 -12 -2 -8 -8 -8 -15 1 -25 9 -11 8 -17 -4 -27 -8 -7 -12 -17 -9 -22
4 -6 10 -5 16 3 6 9 7 2 3 -21 -12 -66 -11 -65 -72 -67 -64 -3 -81 9 -52 40
16 17 23 19 43 9 26 -11 43 -1 31 18 -3 5 -2 25 4 44 7 28 6 38 -8 50 -10 9
-22 16 -28 16 -5 0 -15 18 -22 41 -12 39 -44 64 -66 51 -5 -3 -4 -7 3 -10 17
-5 15 -19 -6 -40 -17 -17 -37 -90 -33 -119 1 -7 -10 -60 -24 -118 -14 -58 -24
-109 -21 -113 3 -5 -2 -9 -10 -9 -11 0 -13 8 -8 31 3 17 11 37 16 43 13 16 3
43 -16 43 -24 0 -33 -28 -26 -83 8 -59 4 -77 -17 -77 -33 0 -94 -45 -109 -80
-9 -19 -20 -43 -25 -52 -5 -10 -9 -25 -9 -33 0 -9 -7 -18 -15 -21 -8 -4 -12
-11 -8 -17 3 -6 1 -7 -6 -3 -7 4 -18 -5 -29 -23 -9 -17 -23 -31 -29 -31 -8 0
-13 -13 -13 -30 0 -16 -4 -30 -9 -30 -5 0 -12 -9 -16 -19 -4 -15 -15 -19 -48
-19 -25 1 -54 -6 -70 -17 -18 -11 -40 -16 -66 -13 -22 2 -37 0 -35 -4 3 -5 -4
-8 -16 -8 -11 0 -23 -7 -26 -15 -4 -8 -12 -15 -20 -15 -7 0 -18 -8 -23 -19 -6
-10 -25 -24 -43 -31 -18 -6 -51 -20 -73 -30 -22 -10 -62 -25 -90 -32 -27 -7
-52 -16 -55 -19 -3 -3 -16 -10 -30 -14 -14 -4 -27 -11 -30 -16 -3 -4 -23 -9
-45 -11 -43 -2 -90 -22 -102 -41 -27 -42 -61 -57 -139 -63 -81 -6 -140 -33
-131 -59 4 -8 -2 -10 -17 -8 -14 3 -30 -5 -45 -21 -14 -14 -33 -26 -43 -26
-12 0 -18 -7 -18 -22 0 -19 -2 -20 -11 -8 -8 11 -12 12 -16 3 -5 -15 -40 -17
-45 -4 -2 6 -21 6 -48 0 -25 -5 -62 -12 -83 -16 -21 -3 -41 -12 -44 -19 -3 -8
-14 -14 -24 -14 -10 0 -19 -4 -19 -10 0 -5 -15 -10 -34 -10 -19 0 -38 -5 -41
-10 -3 -6 -15 -10 -26 -10 -10 0 -19 -6 -19 -14 0 -27 -99 -36 -120 -12 -8 10
-25 13 -53 10 -66 -7 -141 -4 -147 7 -4 6 -25 6 -55 0 -54 -10 -118 8 -129 35
-3 9 -9 13 -14 10 -4 -2 -28 15 -52 40 -30 31 -51 44 -71 44 -20 0 -35 10 -55
35 -14 19 -32 35 -39 35 -6 0 -20 9 -30 20 -11 13 -29 19 -49 18 -17 -1 -39 2
-50 7 -16 7 -17 5 -11 -16 3 -13 3 -19 -2 -12 -4 6 -25 14 -46 18 -30 6 -37 4
-37 -9 0 -10 -8 -16 -22 -16 -19 0 -20 2 -8 10 13 9 13 11 0 20 -8 5 -20 10
-27 10 -7 0 -10 7 -6 17 5 13 2 15 -11 10 -10 -4 -35 -10 -55 -13 -30 -5 -39
-2 -44 10 -4 9 -13 16 -22 16 -8 0 -15 5 -15 10 0 6 7 10 15 10 8 0 15 5 15
10 0 10 -26 15 -62 12 -28 -2 -40 25 -44 100 -2 40 -8 74 -14 76 -5 2 -6 10
-3 18 7 18 -16 66 -29 58 -4 -3 -8 0 -8 5 0 6 -7 11 -16 11 -9 0 -28 7 -44 16
-24 15 -27 21 -23 58 3 26 -1 56 -11 80 -10 24 -13 44 -7 53 11 20 2 55 -12
46 -7 -4 -8 6 -4 30 4 28 2 37 -9 37 -15 0 -19 16 -5 22 13 5 24 48 12 48 -6
0 -11 -6 -11 -12 0 -10 -3 -9 -9 1 -5 8 -3 24 5 40 8 14 14 31 14 37 0 7 8 14
18 17 20 4 32 44 32 99 0 21 -6 31 -20 35 -11 3 -20 9 -20 14 0 9 47 80 58 89
4 3 7 12 7 20 0 9 9 15 25 15 22 0 25 4 24 33 -2 28 1 32 22 32 13 0 24 4 24
10 0 5 11 12 25 16 14 3 25 11 25 16 0 5 7 16 16 25 8 9 13 22 10 30 -4 8 4
17 19 23 14 5 25 14 25 20 0 6 5 8 10 5 6 -3 13 1 16 9 3 9 11 16 18 16 25 0
86 95 86 133 0 15 10 36 22 47 18 17 20 23 9 29 -10 6 -12 19 -7 45 4 20 10
36 14 36 4 0 8 36 10 80 3 68 1 80 -12 80 -19 0 -21 21 -4 38 9 9 8 15 -7 25
-15 12 -16 19 -7 46 11 31 11 31 -16 24 -15 -3 -41 -17 -58 -30 -38 -28 -54
-29 -47 -3 9 33 89 110 115 110 15 0 43 21 81 60 31 33 57 64 57 69 0 6 -17
11 -37 13 -26 2 -38 8 -38 18 0 8 -8 16 -18 18 -9 2 -17 -1 -17 -7 0 -6 -9
-11 -20 -11 -11 0 -29 -9 -40 -20 -20 -20 -20 -20 -20 3 0 26 43 122 60 132 5
3 10 17 10 29 0 13 7 41 16 61 8 21 13 46 11 56 -3 11 6 25 24 38 21 15 29 30
29 51 0 17 -5 30 -11 30 -6 0 -8 9 -4 20 5 15 2 20 -12 20 -18 0 -49 37 -39
47 6 6 61 7 133 3 29 -2 56 0 60 3 15 16 -20 31 -67 29 -28 -1 -50 2 -50 7 0
5 -12 11 -27 13 -22 2 -27 8 -25 23 5 27 20 35 70 35 24 0 42 5 42 11 0 7 -9
9 -23 5 -19 -4 -23 -2 -23 15 1 35 -27 46 -68 27 -30 -15 -36 -15 -46 -3 -10
12 -9 16 4 21 9 3 14 9 12 13 -3 4 2 21 11 39 15 32 15 33 -16 62 -27 26 -29
33 -19 50 7 11 19 18 25 15 22 -8 14 5 -23 39 l-37 34 37 12 c20 6 36 15 36
20 0 4 -15 18 -32 30 -33 21 -33 22 -5 16 26 -6 27 -5 27 35 0 43 -16 67 -57
84 l-24 10 20 22 c31 33 26 52 -25 100 -35 34 -43 47 -35 57 19 23 -13 96 -41
96 -19 0 -25 26 -7 32 12 4 -10 87 -37 140 -20 38 -17 65 6 71 12 3 18 1 14
-5 -4 -6 -1 -9 7 -6 15 5 17 51 4 101 -6 23 -4 29 13 34 19 5 16 11 -35 59
-30 30 -61 54 -68 54 -18 0 -28 32 -13 42 7 4 15 8 18 8 10 0 80 -27 86 -33 4
-3 16 -2 26 4 17 9 19 17 14 50 -7 41 5 52 23 22 9 -15 10 -15 11 -2 0 8 -7
24 -15 35 -20 26 -19 31 9 36 17 3 23 0 22 -11 -2 -25 41 -14 77 20 26 25 29
32 17 39 -8 6 -25 10 -37 10 -35 0 -53 11 -53 32 0 19 4 20 60 15 71 -8 120 0
120 20 0 7 6 16 13 19 8 3 14 10 15 17 1 7 4 23 7 37 10 39 -14 62 -71 66 -57
5 -73 16 -54 39 9 11 24 15 42 13 32 -5 30 -12 12 82 -3 17 -14 32 -25 35 -21
7 -28 60 -8 67 19 6 -28 88 -50 88 -10 0 -24 7 -31 15 -9 10 -9 15 -1 15 6 0
11 6 11 14 0 14 -21 36 -85 89 -23 20 -27 28 -18 37 9 10 26 8 75 -8 34 -11
87 -24 116 -28 28 -3 52 -10 52 -15 0 -5 9 -9 20 -9 11 0 20 7 20 15 0 8 -6
15 -13 15 -7 0 -20 9 -30 20 -9 11 -26 20 -37 20 -12 0 -32 7 -45 16 -18 12
-29 13 -38 6 -15 -13 -42 1 -33 17 4 6 12 9 17 6 5 -4 18 -3 30 0 19 6 19 8 5
30 -20 30 -13 35 50 35 55 0 127 -25 172 -60 18 -15 34 -19 53 -15 16 4 43 -1
65 -11 22 -9 66 -21 99 -26 33 -4 71 -10 85 -13 86 -17 183 -17 307 0 111 16
133 22 133 36 0 10 12 19 33 24 l32 8 -40 7 c-22 4 -44 6 -48 3 -5 -3 -70 -1
-145 3 -112 6 -130 9 -97 16 22 5 58 10 80 12 126 10 173 19 169 31 -5 13 3
17 58 29 21 5 28 12 28 31 0 28 -23 34 -46 10 -18 -18 -50 -9 -34 10 6 7 23
16 37 20 19 4 23 9 14 18 -17 17 -13 26 11 20 14 -3 5 7 -22 24 -37 23 -41 28
-24 31 11 2 34 -2 50 -9 16 -6 53 -13 82 -15 40 -3 52 0 52 11 0 8 -6 15 -13
15 -17 0 -69 54 -61 63 4 4 1 13 -5 21 -8 10 -9 16 -1 21 5 3 13 -2 17 -12 3
-10 13 -22 20 -26 8 -5 18 -20 23 -33 11 -28 29 -30 71 -9 23 12 27 19 21 33
-5 9 -7 23 -4 31 3 10 0 12 -12 8 -10 -4 -24 -1 -32 8 -20 20 -10 19 64 -6 53
-18 65 -19 79 -8 9 8 26 12 39 11 13 -2 24 -1 24 3 0 15 -121 59 -190 69 -54
8 -75 15 -75 26 0 18 78 38 128 32 32 -4 37 -2 37 17 0 19 4 20 57 15 32 -3
69 -1 83 4 22 9 22 11 5 12 -11 0 -31 7 -45 15 l-25 14 33 1 c18 0 43 7 57 16
19 13 31 13 66 4 23 -6 68 -11 101 -11 32 0 58 -4 58 -10 0 -6 4 -7 10 -4 12
7 13 65 2 80 -11 16 -50 35 -71 35 -11 0 -23 4 -26 10 -3 5 -19 13 -36 17 -28
8 -29 10 -15 28 13 17 18 18 36 7 17 -10 25 -10 36 -1 16 13 19 39 4 39 -5 0
-10 -4 -10 -10 0 -5 -7 -7 -15 -4 -12 5 -13 10 -4 20 7 8 9 28 5 49 -6 30 -4
35 12 35 11 0 25 6 31 14 10 11 8 17 -6 25 -10 6 -13 11 -8 11 16 0 5 70 -10
70 -19 0 -26 27 -9 34 22 9 51 7 39 -2 -17 -12 -15 -29 5 -47 18 -16 20 -16
20 -2 0 13 6 15 30 11 29 -6 42 7 21 20 -11 7 16 66 30 66 15 0 99 81 114 109
20 37 60 81 74 81 7 0 10 7 7 18 -4 11 4 23 24 37 33 22 38 35 14 35 -8 0 -12
-4 -9 -10 3 -5 0 -10 -8 -10 -8 0 -30 -3 -48 -6 l-34 -6 34 26 c36 27 81 35
81 15 0 -16 62 -2 73 16 4 8 16 15 25 15 9 0 23 10 31 22 13 21 12 21 -40 15
-40 -5 -50 -4 -41 5 19 19 14 28 -17 28 -31 0 -81 40 -81 65 0 11 11 15 43 15
54 0 80 15 43 24 -15 4 -24 11 -21 16 3 6 -3 10 -13 10 -11 0 -25 7 -32 15
-10 12 -8 16 15 25 14 5 45 11 68 12 30 1 22 3 -28 8 -62 5 -66 7 -38 14 18 5
30 13 27 18 -4 5 8 7 28 4 86 -13 153 -17 138 -7 -8 6 -28 11 -43 11 -37 0
-31 24 6 28 17 2 25 8 21 14 -5 7 0 9 15 5 35 -9 20 14 -33 51 -27 17 -60 32
-75 32 -14 0 -35 7 -45 15 -23 17 -5 20 27 4 13 -6 6 4 -17 26 -21 20 -36 39
-32 42 6 7 76 -38 76 -49 0 -4 10 -13 23 -19 22 -12 22 -12 3 10 -31 35 3 26
43 -11 43 -41 30 -17 -20 37 -64 68 -79 88 -74 93 3 3 19 -7 35 -23 16 -16 33
-26 36 -22 4 3 29 -14 57 -39 27 -24 52 -42 54 -40 7 6 -56 96 -66 96 -5 0
-12 7 -15 16 -3 8 -2 12 4 9 16 -10 12 5 -11 37 -24 33 -18 48 11 30 12 -7 20
-8 20 -2 0 5 -4 10 -10 10 -5 0 -20 21 -31 46 -12 25 -30 51 -41 57 -10 7 -18
19 -18 27 0 22 -27 58 -53 71 l-22 11 23 -21 c12 -12 22 -26 22 -31 0 -24 -32
-6 -89 50 -34 33 -64 60 -66 60 -2 0 -1 -10 3 -22 4 -15 2 -19 -7 -13 -20 11
-60 -15 -75 -49 -7 -17 -19 -44 -26 -61 -8 -17 -14 -75 -14 -137 -1 -71 -6
-111 -15 -122 -20 -23 -32 -20 -26 7 9 34 -36 63 -73 49 -44 -17 -128 -22
-141 -9 -12 12 -15 13 -69 15 -43 2 -32 22 13 22 19 0 37 5 40 10 3 6 20 10
37 10 24 0 98 33 98 44 0 1 -24 -1 -53 -5 -80 -12 -225 -11 -207 1 13 9 13 11
0 19 -8 6 -11 13 -7 17 4 4 -1 13 -11 20 -15 12 -14 13 11 14 16 0 26 -4 22
-10 -3 -5 1 -10 10 -10 9 0 13 5 10 10 -3 6 0 10 7 11 7 0 -3 6 -22 12 -33 10
-33 11 -10 15 53 8 43 22 -15 22 -54 0 -58 1 -39 14 11 8 33 16 48 18 16 1 34
12 40 23 6 11 15 23 20 26 15 11 -5 30 -25 24 -11 -4 -19 -2 -19 4 0 6 17 11
38 11 26 0 45 7 57 20 10 11 27 20 38 20 16 0 17 3 7 15 -10 12 -10 15 4 15 9
0 16 4 16 9 0 22 -78 29 -98 9 -9 -9 -12 -8 -12 5 0 9 7 17 16 17 22 0 12 24
-12 28 -10 2 -30 18 -44 35 l-25 32 35 -22 c41 -25 115 -42 89 -21 -9 7 -14
18 -12 24 2 6 -15 17 -37 24 -22 7 -40 17 -40 21 0 14 64 15 104 2 48 -16 47
-16 40 2 -9 21 6 19 32 -6 13 -12 24 -16 28 -11 3 6 -9 23 -26 38 -21 17 -28
29 -20 32 10 3 10 7 1 18 -16 19 -30 18 -22 -2 5 -13 3 -15 -13 -6 -11 6 -45
19 -77 30 -49 18 -57 18 -57 5 0 -10 -6 -13 -16 -9 -9 3 -23 6 -32 6 -13 0
-13 2 3 14 18 13 18 14 -3 25 -26 14 -59 14 -64 1 -4 -12 -108 -1 -108 12 0 5
10 13 23 18 12 5 17 9 11 9 -7 1 -14 7 -17 15 -4 10 1 12 16 9 22 -4 22 -4 2
11 -11 9 -36 19 -57 23 -21 3 -38 9 -38 12 0 4 -16 15 -35 24 -19 9 -35 21
-35 27 0 6 -12 16 -28 22 l-27 12 27 4 c16 2 28 8 28 14 0 6 11 7 27 3 l28 -7
-25 22 c-15 13 -24 30 -22 41 2 11 -8 35 -22 54 -31 40 -32 47 -6 63 11 7 17
18 14 27 -8 20 11 19 55 -4 38 -19 100 -41 118 -41 13 0 10 35 -6 54 -8 10
-29 16 -52 16 -39 0 -58 15 -41 32 6 6 20 4 41 -6 17 -9 31 -14 31 -11 0 10
54 -29 81 -57 14 -15 36 -28 47 -28 12 0 22 -4 22 -8 0 -10 70 -36 77 -28 10
10 -39 56 -58 56 -10 0 -31 12 -46 26 -15 14 -40 32 -56 40 -30 16 -37 30 -9
19 9 -4 48 -11 86 -16 48 -6 79 -16 102 -34 18 -14 44 -29 58 -35 14 -5 26
-15 26 -22 1 -15 85 -80 94 -71 3 3 0 15 -6 27 -15 30 -117 126 -145 137 -34
13 -28 26 9 21 18 -3 46 -19 65 -38 41 -42 68 -45 59 -9 -4 14 -2 25 4 25 21
0 9 20 -12 21 -17 1 -19 2 -5 6 25 7 21 23 -15 60 -54 56 -8 38 60 -24 49 -43
66 -53 72 -42 7 10 17 7 49 -19 22 -18 42 -32 45 -32 3 0 6 19 6 43 0 28 3 37
9 28 5 -7 14 -10 20 -7 7 4 -10 29 -44 63 -30 31 -53 59 -50 61 3 3 19 -10 36
-29 20 -22 32 -30 36 -21 12 29 32 14 123 -97 30 -36 35 -19 15 54 -17 64 -59
134 -82 135 -6 0 -15 4 -18 10 -3 6 1 7 9 4 9 -3 16 -1 16 5 0 15 -29 61 -51
81 -9 8 -19 27 -23 43 -3 15 -15 36 -26 47 -11 11 -20 23 -20 28 0 4 -20 27
-45 50 -25 23 -45 49 -45 57 0 8 -15 25 -34 37 -23 15 -36 32 -39 53 -3 16 -8
41 -12 55 -6 20 -5 23 5 13 7 -6 17 -21 24 -34 19 -37 43 -47 60 -24 21 27 20
49 -4 70 -11 10 -20 24 -20 31 0 24 38 2 88 -49 89 -93 171 -155 182 -137 5 8
9 8 13 -4 4 -9 12 -16 19 -16 10 0 10 2 -1 9 -11 7 -10 10 4 18 16 9 16 13 -4
51 -12 23 -21 51 -21 62 0 12 -5 30 -10 41 -16 29 3 23 23 -9 38 -59 62 -91
70 -92 4 0 7 16 7 35 0 19 5 35 10 35 15 0 12 16 -15 72 -14 28 -24 53 -22 54
8 8 57 -11 57 -22 0 -19 37 -38 44 -21 3 8 9 6 20 -7 16 -19 16 -19 16 2 0 12
-4 22 -10 22 -5 0 -10 7 -10 15 0 23 8 19 62 -30 28 -25 54 -45 58 -45 13 0
22 38 15 60 -4 11 -2 20 4 20 6 0 11 7 11 15 0 21 5 19 40 -15 18 -17 28 -35
24 -42 -5 -8 -2 -9 9 -5 10 3 17 2 17 -4 0 -6 5 -7 11 -4 6 4 8 14 5 22 -3 8
-2 12 3 9 5 -3 24 -39 42 -81 19 -41 38 -75 42 -75 5 0 7 19 5 41 -2 29 1 43
11 47 8 3 11 0 7 -6 -3 -6 -2 -13 3 -16 4 -3 11 -18 14 -33 3 -16 20 -44 37
-63 16 -19 30 -38 30 -42 0 -5 9 -8 19 -8 25 0 30 -8 33 -52 1 -28 5 -34 20
-30 14 3 20 -3 24 -27 6 -30 24 -54 24 -32 0 21 16 11 27 -16 11 -28 11 -28
12 10 1 21 -6 52 -14 70 l-16 32 31 -35 c16 -19 30 -40 30 -47 0 -7 5 -13 11
-13 7 0 8 23 3 70 -6 60 -4 70 9 70 13 0 15 7 10 33 -3 17 -10 36 -14 42 -12
12 -12 45 0 45 12 0 61 -47 61 -60 0 -5 5 -10 10 -10 14 0 13 43 -2 58 -9 9
-8 12 6 12 11 0 25 -8 32 -17 12 -17 13 -16 14 7 0 19 3 21 12 12 22 -22 30
-12 23 31 l-6 42 26 -30 c21 -25 27 -28 35 -15 6 8 9 22 9 30 -3 31 2 34 14
10 9 -17 11 -42 6 -79 -5 -30 -5 -60 -1 -65 4 -6 9 12 12 39 4 41 8 50 25 50
19 0 26 -18 42 -100 3 -16 12 -34 19 -38 8 -4 15 -18 15 -30 1 -12 5 -2 9 23
4 25 5 57 3 73 -4 17 -1 27 6 27 7 0 10 -4 7 -9 -3 -5 1 -11 9 -15 8 -3 15
-14 15 -24 0 -10 11 -24 25 -30 21 -10 25 -19 25 -54 1 -85 32 -168 63 -168 5
0 6 11 3 24 -4 15 -1 26 6 28 8 3 6 21 -10 64 -25 70 -39 174 -24 174 6 0 14
-17 17 -37 8 -50 32 -103 46 -103 6 0 8 -7 5 -16 -9 -24 20 -84 42 -84 13 0
22 -12 31 -39 9 -32 33 -57 49 -51 7 2 42 -49 42 -60 0 -7 7 -10 15 -7 10 5
16 -4 21 -28 3 -19 10 -35 16 -35 5 0 6 15 3 33 -13 73 -23 182 -18 190 3 5
-1 13 -8 18 -11 7 -12 12 -2 28 7 11 14 40 14 63 2 42 3 43 38 44 20 1 28 -1
19 -3 -19 -5 -24 -18 -9 -27 12 -7 24 21 27 59 4 76 2 73 24 45 21 -27 27 -85
10 -95 -8 -5 -7 -11 1 -21 11 -13 16 -11 35 11 13 15 20 34 18 48 -5 22 -4 22
5 1 5 -12 16 -24 25 -27 11 -4 16 -19 16 -43 0 -20 6 -62 14 -93 8 -31 17 -69
20 -84 5 -23 10 -26 20 -18 8 7 12 20 9 30 -2 9 3 23 11 30 11 9 16 30 16 61
0 27 5 50 10 52 6 2 15 48 20 103 10 106 26 200 30 175 1 -8 2 -20 1 -27 -1
-7 7 -18 18 -24 11 -7 17 -19 13 -27 -3 -9 -1 -13 5 -9 7 4 13 -7 17 -27 7
-37 29 -62 46 -51 6 4 8 14 5 24 -3 11 6 30 25 51 22 25 28 39 23 58 -4 18 -2
23 8 20 9 -3 14 -19 14 -41 0 -26 5 -37 18 -41 22 -6 35 39 18 67 -18 28 3 47
27 24 13 -13 17 -36 18 -90 1 -40 6 -83 11 -97 l10 -24 12 22 c6 12 19 22 28
22 12 0 13 -3 3 -15 -6 -8 -10 -20 -8 -27 3 -7 12 3 22 24 10 20 26 44 36 53
18 16 19 15 18 -42 -1 -59 5 -83 22 -83 4 0 11 12 15 28 l7 27 10 -25 c12 -32
23 -15 39 60 6 30 18 70 26 88 16 36 39 45 26 10 -4 -13 -8 -40 -7 -60 0 -25
-3 -33 -9 -25 -5 7 -7 3 -3 -13 3 -14 6 -31 6 -37 0 -7 7 -13 16 -13 10 0 14
6 11 14 -4 10 -1 13 9 9 17 -6 17 -5 4 -39 -12 -31 -5 -64 15 -64 7 0 18 12
23 28 10 25 10 25 11 4 1 -34 21 -16 21 19 0 18 7 33 20 41 11 7 20 19 20 26
0 7 4 11 9 8 4 -3 13 13 20 34 6 22 16 40 21 40 13 0 13 -26 0 -50 -7 -12 -4
-29 8 -58 13 -32 24 -42 48 -47 35 -6 89 9 64 19 -8 3 -22 5 -30 4 -33 -3 -50
3 -50 16 0 17 27 28 51 21 11 -4 19 -2 19 5 0 6 14 1 30 -12 17 -12 30 -27 30
-34 0 -7 5 -16 12 -20 11 -7 15 -2 48 46 8 13 25 34 38 48 12 14 22 32 22 41
0 9 11 30 25 46 23 28 24 29 25 8 0 -33 19 -38 30 -8 15 41 91 97 108 80 7 -6
-98 -110 -118 -117 -10 -3 -8 -6 8 -10 13 -4 28 0 36 8 18 18 36 18 36 1 0 -8
-12 -20 -26 -27 -22 -12 -54 -56 -54 -75 0 -14 29 -2 50 20 28 30 46 32 55 6
6 -19 7 -19 42 5 20 13 42 24 49 24 8 0 14 5 14 10 0 6 5 10 10 10 6 0 23 11
38 25 15 14 34 25 43 25 9 0 24 12 34 26 9 15 22 23 31 20 8 -3 35 4 61 15 26
11 57 18 70 14 15 -3 25 1 32 14 6 10 34 26 63 35 29 10 83 35 120 57 36 21
71 39 77 39 22 0 10 -19 -19 -32 -26 -11 -41 -28 -25 -28 13 0 83 40 94 54 14
17 41 22 41 8z m-4232 -80 c12 -13 22 -25 22 -28 0 -10 -69 48 -74 63 -6 14
-4 14 11 2 10 -8 28 -24 41 -37z m2462 -2 c0 -5 -4 -10 -10 -10 -5 0 -10 5
-10 10 0 6 5 10 10 10 6 0 10 -4 10 -10z m-1183 -92 c-3 -8 -6 -5 -6 6 -1 11
2 17 5 13 3 -3 4 -12 1 -19z m2333 -18 c0 -5 -4 -10 -10 -10 -5 0 -10 5 -10
10 0 6 5 10 10 10 6 0 10 -4 10 -10z m-1610 -21 c0 -6 -4 -7 -10 -4 -5 3 -10
11 -10 16 0 6 5 7 10 4 6 -3 10 -11 10 -16z m-523 -26 c-3 -10 -5 -4 -5 12 0
17 2 24 5 18 2 -7 2 -21 0 -30z m1663 16 c-7 -11 -14 -19 -16 -16 -7 7 7 37
17 37 6 0 5 -9 -1 -21z m1150 -13 c0 -3 -4 -8 -10 -11 -5 -3 -10 -1 -10 4 0 6
5 11 10 11 6 0 10 -2 10 -4z m-830 -16 c0 -5 -4 -10 -10 -10 -5 0 -10 5 -10
10 0 6 5 10 10 10 6 0 10 -4 10 -10z m484 -5 c-6 -16 -24 -21 -24 -7 0 11 11
22 21 22 5 0 6 -7 3 -15z m306 -5 c13 -8 13 -10 -2 -10 -9 0 -20 5 -23 10 -8
13 5 13 25 0z m-1076 -35 c-4 -8 -10 -15 -15 -15 -4 0 -6 7 -3 15 4 8 10 15
15 15 4 0 6 -7 3 -15z m659 0 c-3 -9 -8 -14 -10 -11 -3 3 -2 9 2 15 9 16 15
13 8 -4z m-1954 -93 c0 -26 1 -76 1 -112 2 -93 -19 -65 -23 31 -1 41 -6 79 -9
84 -4 6 -1 27 5 48 10 32 13 34 19 16 4 -11 8 -42 7 -67z m2825 -40 c3 -5 -16
-14 -41 -19 l-47 -11 24 19 c26 20 55 25 64 11z m208 -133 c-38 -15 -139 -24
-127 -11 6 6 35 13 65 15 30 2 62 4 70 5 8 0 4 -3 -8 -9z m-5183 -110 c13 -11
22 -21 20 -24 -3 -2 -18 7 -34 20 -17 13 -25 24 -20 24 6 0 21 -9 34 -20z
m153 -56 c3 -16 9 -36 13 -45 4 -11 3 -18 -3 -18 -9 0 -32 59 -32 83 0 20 18
3 22 -20z m63 7 c3 -5 2 -10 -4 -10 -5 0 -13 5 -16 10 -3 6 -2 10 4 10 5 0 13
-4 16 -10z m-474 -120 c22 -13 25 -30 4 -30 -8 0 -19 9 -25 20 -12 23 -7 25
21 10z m5414 -50 c-3 -5 -17 -10 -31 -10 -14 0 -22 4 -19 10 3 6 17 10 31 10
14 0 22 -4 19 -10z m-50 -70 c3 -5 1 -10 -4 -10 -6 0 -11 5 -11 10 0 6 2 10 4
10 3 0 8 -4 11 -10z m80 -20 c4 -6 -6 -10 -22 -9 -25 0 -26 1 -8 9 11 5 21 9
22 9 1 1 5 -3 8 -9z m-5500 -110 c3 -5 -1 -10 -9 -10 -9 0 -16 5 -16 10 0 6 4
10 9 10 6 0 13 -4 16 -10z m5420 -201 c5 -5 25 -9 45 -9 l35 -1 -25 -14 c-25
-14 -25 -14 -2 -15 12 0 22 -4 22 -8 0 -20 -62 3 -97 35 -33 31 -35 34 -13 28
14 -4 29 -11 35 -16z m-5185 -309 c0 -5 -5 -10 -11 -10 -5 0 -7 5 -4 10 3 6 8
10 11 10 2 0 4 -4 4 -10z m730 -211 c0 -6 -4 -7 -10 -4 -5 3 -10 11 -10 16 0
6 5 7 10 4 6 -3 10 -11 10 -16z m-980 1 c0 -5 -8 -10 -17 -10 -10 0 -29 -3
-43 -6 l-25 -6 25 15 c29 18 60 21 60 7z m1043 -21 c3 -12 9 -19 14 -16 4 3 9
-11 10 -31 1 -22 9 -42 20 -50 17 -13 17 -14 -1 -10 -10 1 -24 12 -30 23 -6
11 -19 32 -29 47 -9 14 -14 33 -11 42 9 22 21 20 27 -5z m4375 14 c-10 -2 -26
-2 -35 0 -10 3 -2 5 17 5 19 0 27 -2 18 -5z m272 -13 c0 -5 -4 -10 -10 -10 -5
0 -10 5 -10 10 0 6 5 10 10 10 6 0 10 -4 10 -10z m-253 -96 c-3 -3 -12 -4 -19
-1 -8 3 -5 6 6 6 11 1 17 -2 13 -5z m-5110 -10 c-3 -3 -12 -4 -19 -1 -8 3 -5
6 6 6 11 1 17 -2 13 -5z m4499 -22 c7 -5 3 -15 -12 -31 l-23 -25 4 30 c2 16 4
30 4 32 2 4 16 2 27 -6z m-3976 -11 c0 -17 -12 -41 -21 -41 -5 0 -9 11 -9 25
0 16 6 25 15 25 8 0 15 -4 15 -9z m4840 -16 c17 -9 30 -21 30 -27 0 -6 -3 -9
-6 -5 -3 3 -18 1 -32 -4 -17 -7 -29 -6 -36 1 -7 7 -5 10 7 10 9 0 17 5 17 11
0 7 -11 9 -30 6 -29 -6 -42 6 -17 16 22 9 37 7 67 -8z m-360 -31 c0 -8 -7 -14
-15 -14 -17 0 -18 2 -9 24 7 18 24 12 24 -10z m-4665 -34 c-3 -5 -13 -10 -21
-10 -8 0 -14 5 -14 10 0 6 9 10 21 10 11 0 17 -4 14 -10z m390 -16 c9 -9 13
-19 10 -22 -3 -3 -15 4 -27 16 -13 12 -17 22 -11 22 6 0 19 -7 28 -16z m-507
-15 c-2 -6 -8 -10 -13 -10 -5 0 -11 4 -13 10 -2 6 4 11 13 11 9 0 15 -5 13
-11z m4342 4 c0 -5 -7 -17 -16 -28 -13 -17 -16 -18 -24 -5 -7 11 -4 16 10 18
11 2 18 8 15 13 -4 5 -1 9 4 9 6 0 11 -3 11 -7z m-4278 -25 c-7 -7 -12 -8 -12
-2 0 14 12 26 19 19 2 -3 -1 -11 -7 -17z m5102 -2 c23 -13 61 -27 84 -31 24
-4 42 -12 42 -20 0 -22 -165 -26 -206 -5 -45 23 -33 30 40 24 l61 -5 -40 21
c-50 26 -65 40 -41 40 9 0 36 -11 60 -24z m-5320 5 c9 -15 -44 -33 -60 -20 -8
6 -11 15 -8 20 7 11 61 12 68 0z m3646 -42 c0 -5 -10 -9 -21 -9 -18 0 -19 2
-9 15 12 15 30 12 30 -6z m-3517 -61 c39 -19 33 -34 -12 -32 -73 4 -85 29 -20
43 3 0 17 -5 32 -11z m4067 -4 c0 -8 -4 -12 -10 -9 -5 3 -10 10 -10 16 0 5 5
9 10 9 6 0 10 -7 10 -16z m1200 -4 c0 -13 -7 -20 -20 -20 -19 0 -27 20 -13 33
13 14 33 6 33 -13z m-272 -25 c20 -23 37 -30 92 -38 l25 -3 -28 -12 c-29 -12
-29 -36 0 -25 9 4 19 -1 25 -10 5 -10 20 -17 33 -17 18 0 23 -4 18 -16 -12
-33 -64 -9 -140 64 -40 39 -73 73 -73 76 0 15 28 4 48 -19z m161 2 c6 -8 8
-17 4 -21 -4 -4 0 -4 9 -1 10 4 34 1 55 -6 21 -7 41 -12 46 -11 12 3 8 -7 -12
-27 -21 -21 -96 -34 -126 -21 -18 7 -18 9 -3 15 14 5 15 12 7 33 -6 15 -10 29
-9 32 1 2 -7 7 -17 11 -14 6 -13 8 8 8 15 1 32 -5 38 -12z m-4669 -16 c23 -7
22 -8 -14 -15 -29 -6 -43 -4 -55 8 -14 15 -13 16 14 15 17 -1 41 -4 55 -8z
m-414 -47 c4 -14 2 -30 -5 -37 -14 -14 -15 -30 -1 -22 13 8 65 -43 74 -73 4
-12 10 -21 14 -19 4 1 7 -2 7 -8 0 -5 -3 -9 -7 -7 -5 1 -8 -9 -8 -23 0 -27
-34 -50 -89 -60 -28 -5 -31 -3 -31 20 0 14 -5 25 -10 25 -18 0 -35 49 -22 62
19 19 14 30 -10 23 -17 -6 -20 -4 -15 10 4 9 7 33 7 54 0 32 5 40 38 59 47 27
50 27 58 -4z m4248 -9 c3 -8 2 -15 -3 -15 -5 0 -14 7 -21 15 -10 12 -10 15 3
15 8 0 17 -7 21 -15z m-184 -29 c0 -44 -48 -126 -74 -126 -6 0 -33 -12 -60
-26 -56 -30 -142 -42 -175 -25 -16 9 -21 20 -19 39 2 15 8 27 13 28 23 2 44
17 38 27 -3 5 -1 7 5 3 10 -6 100 31 112 45 3 4 24 6 47 6 32 -1 47 4 63 21
23 25 50 29 50 8z m1135 -26 c-11 -5 -40 -9 -65 -9 -34 0 -40 3 -25 9 11 5 40
9 65 9 34 0 40 -3 25 -9z m-1378 -27 c-9 -9 -20 -13 -24 -9 -4 4 -1 11 7 16
25 16 35 11 17 -7z m-57 -31 c0 -4 -9 -8 -20 -8 -11 0 -20 4 -20 8 0 4 9 8 20
8 11 0 20 -4 20 -8z m-430 -32 c0 -5 -4 -10 -10 -10 -5 0 -10 5 -10 10 0 6 5
10 10 10 6 0 10 -4 10 -10z m1440 -64 c0 -11 -19 -15 -25 -6 -3 5 1 10 9 10 9
0 16 -2 16 -4z m-1330 -42 c0 -2 -9 -4 -20 -4 -11 0 -20 4 -20 9 0 5 9 7 20 4
11 -3 20 -7 20 -9z m1380 -35 c18 -15 20 -19 7 -15 -10 3 -22 6 -27 6 -4 0
-10 7 -14 15 -8 21 4 18 34 -6z m-530 1 c0 -5 -4 -10 -10 -10 -5 0 -10 5 -10
10 0 6 5 10 10 10 6 0 10 -4 10 -10z m425 -20 c3 -5 -1 -10 -9 -10 -9 0 -16 5
-16 10 0 6 4 10 9 10 6 0 13 -4 16 -10z m-289 -26 c17 -14 17 -15 1 -10 -10 3
-23 6 -28 6 -5 0 -9 5 -9 10 0 14 13 12 36 -6z m-4399 -20 c-3 -3 -12 -4 -19
-1 -8 3 -5 6 6 6 11 1 17 -2 13 -5z m4503 2 c0 -2 -7 -6 -15 -10 -8 -3 -15 -1
-15 4 0 6 7 10 15 10 8 0 15 -2 15 -4z m-4480 -26 c0 -5 -4 -10 -10 -10 -5 0
-10 5 -10 10 0 6 5 10 10 10 6 0 10 -4 10 -10z m240 0 c0 -5 -4 -10 -9 -10 -6
0 -13 5 -16 10 -3 6 1 10 9 10 9 0 16 -4 16 -10z m4200 -10 c0 -5 -4 -10 -10
-10 -5 0 -10 5 -10 10 0 6 5 10 10 10 6 0 10 -4 10 -10z m-4460 -19 c0 -5 3
-18 7 -28 6 -17 5 -17 -15 1 -26 22 -28 36 -7 36 8 0 15 -4 15 -9z m4475 -11
c3 -5 1 -10 -4 -10 -6 0 -11 5 -11 10 0 6 2 10 4 10 3 0 8 -4 11 -10z m-4300
-30 c-3 -5 -10 -10 -16 -10 -5 0 -9 5 -9 10 0 6 7 10 16 10 8 0 12 -4 9 -10z
m4601 -15 c10 -8 14 -15 7 -15 -19 0 -43 11 -43 21 0 13 14 11 36 -6z m-4816
-5 c0 -5 -5 -10 -11 -10 -5 0 -7 5 -4 10 3 6 8 10 11 10 2 0 4 -4 4 -10z
m4213 -23 c21 4 28 3 23 -5 -5 -9 -24 -10 -68 -3 -5 0 -8 6 -8 13 0 9 3 9 11
1 7 -7 25 -9 42 -6z m237 -7 c6 -11 9 -20 7 -20 -2 0 -12 9 -22 20 -10 11 -13
20 -7 20 6 0 16 -9 22 -20z m188 -17 c2 -12 10 -27 18 -33 20 -18 20 -114 -1
-106 -8 3 -15 1 -15 -4 0 -6 10 -10 23 -11 21 0 21 -1 2 -8 -27 -11 -35 -5
-35 25 0 14 4 22 10 19 21 -13 9 57 -15 89 -14 18 -25 38 -25 45 0 22 35 7 38
-16z m-80 -48 c-11 -12 -38 20 -38 43 0 11 7 8 23 -9 14 -15 20 -28 15 -34z
m62 -58 c0 -12 -6 -17 -17 -15 -14 3 -19 15 -20 58 l-3 55 20 -40 c11 -22 19
-48 20 -58z m-402 45 c2 -7 -2 -10 -12 -6 -9 3 -16 11 -16 16 0 13 23 5 28
-10z m-108 -2 c0 -5 -8 -10 -17 -10 -15 0 -16 2 -3 10 19 12 20 12 20 0z m235
-40 c3 -5 -1 -10 -9 -10 -8 0 -18 5 -21 10 -3 6 1 10 9 10 8 0 18 -4 21 -10z
m-175 -10 c0 -5 -6 -10 -14 -10 -8 0 -18 5 -21 10 -3 6 3 10 14 10 12 0 21 -4
21 -10z m-55 -30 c3 -5 1 -10 -4 -10 -6 0 -11 5 -11 10 0 6 2 10 4 10 3 0 8
-4 11 -10z m55 -8 c0 -4 -10 -9 -22 -9 -18 -2 -20 0 -8 7 18 12 30 13 30 2z
m215 -13 c11 -17 2 -18 -19 -3 -17 12 -17 14 -4 14 9 0 20 -5 23 -11z m221
-24 c8 -7 14 -17 14 -22 0 -5 10 -13 22 -18 12 -6 31 -23 42 -38 20 -27 20
-29 3 -39 -12 -6 -15 -14 -9 -21 5 -7 13 -23 17 -36 4 -12 20 -35 36 -50 28
-26 32 -37 30 -79 -1 -32 -18 -19 -27 21 -4 17 -9 26 -11 20 -8 -24 -33 -14
-33 13 0 26 -20 54 -39 54 -6 0 -11 10 -11 23 0 13 -17 38 -39 60 -38 37 -68
97 -57 115 8 13 48 12 62 -3z m112 -50 c0 -25 -1 -25 -19 -9 -11 9 -19 21 -19
26 0 4 8 8 19 8 13 0 19 -7 19 -25z m-292 3 c5 -7 2 -9 -9 -5 -9 3 -18 1 -21
-6 -2 -7 -5 -4 -5 6 -1 19 24 23 35 5z m9 -38 c8 -13 -5 -13 -25 0 -13 8 -13
10 2 10 9 0 20 -4 23 -10z m-110 -10 c3 -5 2 -10 -4 -10 -5 0 -13 5 -16 10 -3
6 -2 10 4 10 5 0 13 -4 16 -10z m175 -39 c0 -5 -9 -7 -20 -4 -11 3 -20 7 -20
9 0 2 9 4 20 4 11 0 20 -4 20 -9z m-150 -41 l21 -30 -35 23 c-37 23 -45 37
-22 37 8 0 24 -13 36 -30z m123 13 c-7 -2 -19 -2 -25 0 -7 3 -2 5 12 5 14 0
19 -2 13 -5z m32 -2 c3 -5 1 -12 -5 -16 -5 -3 -10 1 -10 9 0 18 6 21 15 7z
m-210 -31 c6 -20 25 -28 25 -10 0 5 7 7 16 3 13 -5 15 -14 10 -46 -6 -36 -5
-39 9 -27 14 12 15 10 9 -16 -9 -38 -6 -36 -41 -19 -36 18 -42 30 -39 73 1 18
-1 32 -6 32 -4 0 -8 7 -8 15 0 22 18 18 25 -5z m355 -63 c0 -5 -4 -5 -10 -2
-5 3 -10 14 -10 23 0 15 2 15 10 2 5 -8 10 -19 10 -23z m230 -12 c0 -8 -2 -15
-4 -15 -2 0 -6 7 -10 15 -3 8 -1 15 4 15 6 0 10 -7 10 -15z m-30 -15 c0 -5 -2
-10 -4 -10 -3 0 -8 5 -11 10 -3 6 -1 10 4 10 6 0 11 -4 11 -10z m-324 -57 c-6
-6 -56 8 -56 16 0 17 14 19 36 4 14 -9 23 -18 20 -20z m177 7 c4 -17 3 -19 -9
-9 -8 6 -14 18 -14 26 0 20 16 8 23 -17z m167 -40 c0 -38 -4 -70 -9 -70 -9 0
-21 108 -14 128 13 32 23 5 23 -58z m-191 16 c-3 -3 -11 5 -18 17 -13 21 -12
21 5 5 10 -10 16 -20 13 -22z m-289 -16 c0 -19 -18 -19 -23 -1 -3 14 -1 18 9
14 8 -3 14 -9 14 -13z m100 -55 c0 -5 -5 -3 -10 5 -5 8 -10 20 -10 25 0 6 5 3
10 -5 5 -8 10 -19 10 -25z m70 26 c0 -5 9 -11 20 -14 11 -3 20 -11 20 -17 0
-10 -3 -10 -15 0 -12 10 -15 10 -15 -1 0 -8 -6 -5 -15 7 -17 23 -19 34 -5 34
6 0 10 -4 10 -9z m-172 -56 c17 -64 23 -91 16 -77 -3 6 -9 10 -14 7 -8 -5 -13
11 -26 90 -8 51 9 36 24 -20z m362 12 c0 -26 -15 -12 -25 23 -7 22 -6 23 9 11
9 -7 16 -23 16 -34z m160 -18 c0 -9 11 -37 25 -63 14 -26 25 -54 25 -62 0 -7
4 -14 9 -14 26 0 13 -93 -16 -104 -26 -10 -31 5 -24 62 5 37 4 58 -5 70 -8 9
-14 31 -14 47 l-1 30 -11 -25 -11 -25 -8 35 c-5 22 -4 37 3 41 6 4 8 14 5 22
-3 8 -3 18 1 21 7 8 22 -14 22 -35z m-374 14 c15 -20 18 -33 7 -33 -5 0 -13
11 -20 25 -13 29 -6 33 13 8z m-4975 -8 c-18 -8 -43 -15 -55 -14 -15 0 -12 4
14 14 49 19 85 19 41 0z m4949 -17 c0 -23 -16 -16 -23 11 -3 14 -1 18 9 14 8
-3 14 -14 14 -25z m500 -62 c0 -19 -4 -38 -10 -41 -6 -4 -10 10 -10 34 0 23 5
41 10 41 6 0 10 -15 10 -34z m-620 -32 c0 -8 -4 -12 -10 -9 -5 3 -10 10 -10
16 0 5 5 9 10 9 6 0 10 -7 10 -16z m263 -45 c-7 -27 -23 -24 -23 6 0 17 4 23
14 19 8 -3 12 -13 9 -25z m-340 -34 c-7 -21 -13 -19 -13 6 0 11 4 18 10 14 5
-3 7 -12 3 -20z m-34 -57 c1 -10 -3 -18 -8 -18 -14 0 -20 25 -14 51 6 22 7 22
14 3 4 -10 8 -27 8 -36z m89 -29 c-6 -4 -7 -16 -3 -29 5 -15 3 -21 -5 -18 -6
2 -11 7 -11 11 1 4 1 26 1 50 1 41 1 41 15 17 9 -16 10 -27 3 -31z m62 30 c0
-5 -4 -9 -10 -9 -5 0 -10 7 -10 16 0 8 5 12 10 9 6 -3 10 -10 10 -16z m179
-85 c17 -38 6 -42 -14 -5 -8 17 -12 31 -7 31 5 0 14 -12 21 -26z m-481 -25
c-3 -8 -7 -3 -11 10 -4 17 -3 21 5 13 5 -5 8 -16 6 -23z m-337 4 c13 -17 13
-17 -6 -3 -11 8 -22 16 -24 17 -2 2 0 3 6 3 6 0 17 -8 24 -17z m53 -9 c3 -8 2
-12 -4 -9 -6 3 -10 10 -10 16 0 14 7 11 14 -7z m-5220 -20 c15 -6 23 -44 10
-44 -8 0 -33 32 -34 43 0 9 4 9 24 1z m711 -24 c-3 -5 -15 -10 -26 -10 -11 0
-17 5 -14 10 3 6 15 10 26 10 11 0 17 -4 14 -10z m4505 -22 c0 -12 -24 -10
-38 4 -20 20 -13 28 13 16 14 -6 25 -15 25 -20z m803 17 c4 -8 2 -17 -3 -20
-6 -4 -10 3 -10 14 0 25 6 27 13 6z m-743 -5 c0 -5 -2 -10 -4 -10 -3 0 -8 5
-11 10 -3 6 -1 10 4 10 6 0 11 -4 11 -10z m745 -50 c11 21 14 17 28 -51 22
-100 25 -151 9 -157 -8 -2 -12 7 -12 25 0 40 -27 124 -50 155 -11 15 -20 33
-20 40 0 7 7 2 16 -11 l17 -24 12 23z m-700 0 c3 -6 -1 -7 -9 -4 -18 7 -21 14
-7 14 6 0 13 -4 16 -10z m695 -112 c28 -47 25 -58 -5 -18 -24 32 -31 50 -20
50 3 0 14 -15 25 -32z m84 -14 c5 -14 4 -15 -9 -4 -17 14 -19 20 -6 20 5 0 12
-7 15 -16z m0 -100 c5 -14 4 -15 -9 -4 -17 14 -19 20 -6 20 5 0 12 -7 15 -16z
m-6442 -444 c5 34 5 34 6 -7 2 -37 -1 -43 -18 -43 -17 0 -20 6 -19 43 l1 42
13 -35 13 -35 4 35z m5971 -25 c51 -59 101 -155 81 -155 -7 0 -14 -4 -14 -10
0 -5 4 -10 9 -10 5 0 11 -16 13 -35 2 -19 1 -35 -2 -35 -11 0 -65 63 -96 111
-16 24 -32 46 -36 47 -5 2 -8 10 -8 18 0 9 4 13 9 10 5 -4 7 3 4 14 -3 11 -9
23 -14 26 -14 8 -11 64 4 64 6 -1 29 -21 50 -45z m-6283 -35 c0 -5 -11 -3 -24
3 -16 8 -20 14 -13 19 12 7 37 -8 37 -22z m278 -85 c-3 -3 -9 2 -12 12 -6 14
-5 15 5 6 7 -7 10 -15 7 -18z m-233 -35 c22 -27 48 -51 57 -54 29 -7 21 -28
-9 -24 -21 2 -32 12 -44 38 -13 27 -17 31 -20 15 -4 -18 -5 -18 -21 -1 -18 17
-25 76 -10 76 4 -1 25 -23 47 -50z m149 -22 c23 -24 25 -45 5 -61 -16 -14 -19
-15 -19 -2 0 8 -6 15 -13 15 -7 0 -18 10 -25 21 -13 20 -12 21 12 15 20 -5 24
-3 20 9 -7 18 3 20 20 3z m6216 -60 c0 -5 -4 -8 -10 -8 -5 0 -10 10 -10 23 0
18 2 19 10 7 5 -8 10 -18 10 -22z m-165 -88 c-3 -5 -12 -7 -20 -3 -21 7 -19
13 6 13 11 0 18 -4 14 -10z m181 -27 c-7 -7 -26 7 -26 19 0 6 6 6 15 -2 9 -7
13 -15 11 -17z m-161 -17 c18 -13 18 -14 -3 -25 -11 -6 -27 -11 -34 -11 -15 0
-40 35 -31 44 11 11 49 6 68 -8z m240 -192 c29 -19 55 -67 55 -103 0 -14 4
-41 9 -59 8 -27 6 -40 -10 -68 -10 -19 -19 -48 -19 -64 0 -28 -13 -40 -24 -22
-3 4 -12 62 -21 128 -32 233 -33 216 10 188z m193 -110 c14 -47 26 -161 17
-152 -3 3 -10 34 -16 68 -14 86 -13 84 -21 90 -3 3 -10 19 -13 35 -7 26 -6 28
7 15 8 -8 20 -34 26 -56z m-6490 -60 c28 -19 29 -44 2 -37 -11 3 -20 0 -20 -6
0 -6 -9 -2 -21 10 -16 16 -18 23 -8 35 15 18 19 18 47 -2z m196 -930 c9 -24 1
-28 -36 -18 -45 13 -48 34 -5 34 23 0 37 -6 41 -16z m5252 -25 c19 -22 19 -22
-3 -8 -13 8 -23 17 -23 21 0 12 6 9 26 -13z m-21 -39 c3 -5 -1 -10 -9 -10 -9
0 -16 5 -16 10 0 6 4 10 9 10 6 0 13 -4 16 -10z m-246 -485 c22 -3 40 -20 41
-36 0 -4 -12 -9 -27 -12 -27 -5 -73 10 -73 24 0 4 -3 15 -7 25 -5 14 -2 16 18
10 13 -4 35 -9 48 -11z m359 -498 c-24 -23 -73 -53 -118 -72 -25 -10 -55 -30
-67 -44 -13 -14 -23 -20 -23 -13 0 6 -7 12 -16 12 -14 0 -14 -3 -4 -15 19 -22
3 -18 -21 6 -11 11 -18 27 -15 35 6 16 87 54 114 54 9 0 46 11 82 25 75 28 86
30 68 12z m-2248 -867 c0 -5 -5 -10 -11 -10 -5 0 -7 5 -4 10 3 6 8 10 11 10 2
0 4 -4 4 -10z m-240 -134 c0 -3 -4 -8 -10 -11 -5 -3 -10 -1 -10 4 0 6 5 11 10
11 6 0 10 -2 10 -4z m-462 -513 c-3 -46 -4 -48 -31 -46 -16 1 -25 -2 -21 -8 4
-7 -8 -8 -33 -3 -46 8 -59 18 -41 33 62 53 73 60 80 48 5 -8 9 -6 14 6 3 9 13
17 21 17 11 0 13 -11 11 -47z m702 -263 c0 -5 -4 -10 -10 -10 -5 0 -10 5 -10
10 0 6 5 10 10 10 6 0 10 -4 10 -10z"/>
<path d="M2890 10256 c0 -8 4 -17 9 -20 5 -4 7 3 4 14 -6 23 -13 26 -13 6z"/>
<path d="M4575 10160 c4 -11 2 -20 -4 -20 -6 0 -11 -7 -11 -15 0 -13 4 -14 23
-4 31 17 37 30 22 46 -20 20 -37 16 -30 -7z"/>
<path d="M2266 10162 c-8 -13 30 -36 47 -28 8 3 7 5 -2 5 -8 1 -19 8 -26 18
-8 11 -14 12 -19 5z"/>
<path d="M5930 10160 c-8 -5 -10 -10 -5 -10 6 0 17 5 25 10 8 5 11 10 5 10 -5
0 -17 -5 -25 -10z"/>
<path d="M4648 10116 c-2 -20 0 -36 4 -36 13 0 21 51 10 62 -6 6 -11 -2 -14
-26z"/>
<path d="M5499 10142 c-15 -3 -39 -41 -39 -62 0 -20 28 -9 44 16 20 30 18 51
-5 46z"/>
<path d="M2592 10128 c6 -18 28 -21 28 -4 0 9 -7 16 -16 16 -9 0 -14 -5 -12
-12z"/>
<path d="M5855 10112 c-16 -11 -39 -61 -32 -69 4 -3 17 -2 30 4 12 6 33 15 46
20 l24 9 -23 22 c-26 24 -30 25 -45 14z"/>
<path d="M4610 10066 c0 -7 9 -16 20 -19 24 -6 28 18 4 27 -22 8 -24 8 -24 -8z"/>
<path d="M5706 10061 c-4 -7 -5 -15 -2 -18 9 -9 19 4 14 18 -4 11 -6 11 -12 0z"/>
<path d="M5593 10041 c-14 -23 -5 -35 14 -20 14 12 18 39 5 39 -4 0 -13 -9
-19 -19z"/>
<path d="M6298 10043 c7 -3 16 -2 19 1 4 3 -2 6 -13 5 -11 0 -14 -3 -6 -6z"/>
<path d="M4738 10016 c-3 -14 -2 -26 3 -26 14 0 20 20 11 36 -8 14 -10 12 -14
-10z"/>
<path d="M5850 10010 c-9 -17 -8 -19 12 -11 26 9 36 31 14 31 -8 0 -20 -9 -26
-20z"/>
<path d="M4931 10010 c1 -8 0 -22 -4 -30 -11 -30 -14 -58 -8 -69 4 -6 12 12
17 39 6 28 7 55 2 62 -7 10 -8 9 -7 -2z"/>
<path d="M4670 9934 c0 -14 4 -23 10 -19 6 3 10 15 10 26 0 10 -4 19 -10 19
-5 0 -10 -12 -10 -26z"/>
<path d="M5026 9937 c-14 -21 -16 -31 -7 -40 8 -8 11 -7 11 5 0 9 5 18 11 20
6 2 9 13 7 23 -3 18 -6 17 -22 -8z"/>
<path d="M3301 9831 c-1 -40 33 -116 54 -125 9 -3 15 1 15 9 0 14 -20 66 -30
75 -3 3 -13 21 -22 40 l-17 35 0 -34z"/>
<path d="M6408 9732 c-45 -30 -43 -38 5 -23 19 7 46 9 60 6 14 -4 28 -2 31 4
5 7 -3 11 -18 11 -16 0 -26 6 -26 15 0 20 -8 18 -52 -13z"/>
<path d="M6745 9560 c-3 -5 3 -10 15 -10 12 0 18 5 15 10 -3 6 -10 10 -15 10
-5 0 -12 -4 -15 -10z"/>
<path d="M2520 9519 c0 -5 5 -7 10 -4 6 3 10 8 10 11 0 2 -4 4 -10 4 -5 0 -10
-5 -10 -11z"/>
<path d="M6545 9500 c-5 -9 18 -20 41 -20 8 0 14 4 14 9 0 11 -49 21 -55 11z"/>
<path d="M6705 9491 c-24 -5 -29 -11 -27 -29 3 -19 -2 -22 -30 -23 -18 -1 -42
-1 -53 0 -20 2 -64 -24 -55 -32 3 -2 43 0 90 6 47 6 100 10 118 10 21 0 31 5
28 13 -6 17 14 33 33 27 11 -4 9 1 -6 16 -22 21 -44 24 -98 12z"/>
<path d="M1996 9469 c17 -19 65 -49 79 -49 18 0 -1 23 -38 45 -53 31 -66 32
-41 4z"/>
<path d="M6490 9440 c0 -13 11 -13 30 0 12 8 11 10 -7 10 -13 0 -23 -4 -23
-10z"/>
<path d="M6635 9360 c-3 -5 3 -10 14 -10 12 0 21 5 21 10 0 6 -6 10 -14 10 -8
0 -18 -4 -21 -10z"/>
<path d="M7200 9270 c0 -5 5 -10 10 -10 6 0 10 5 10 10 0 6 -4 10 -10 10 -5 0
-10 -4 -10 -10z"/>
<path d="M1825 9140 c-4 -6 3 -10 14 -10 25 0 27 6 6 13 -8 4 -17 2 -20 -3z"/>
<path d="M2352 8900 c7 -11 21 -23 30 -26 10 -3 18 -10 18 -15 0 -5 5 -9 11
-9 7 0 -3 16 -22 35 -38 38 -56 46 -37 15z"/>
<path d="M2080 8851 c0 -12 26 -21 58 -20 26 0 25 1 -8 14 -43 17 -50 17 -50
6z"/>
<path d="M6350 8831 c0 -6 -8 -11 -17 -12 -14 0 -13 -3 5 -12 18 -8 25 -8 31
2 6 9 16 10 42 2 l34 -11 -32 5 c-18 2 -33 0 -33 -5 0 -13 66 -13 91 0 31 17
22 25 -28 25 -27 0 -58 4 -70 8 -15 5 -23 4 -23 -2z"/>
<path d="M6270 8800 c-8 -5 -12 -11 -10 -14 3 -2 14 2 24 10 22 15 10 19 -14
4z"/>
<path d="M6320 8690 c-12 -8 -12 -10 3 -16 22 -8 50 3 42 16 -8 12 -25 13 -45
0z"/>
<path d="M6405 8679 c-4 -6 -4 -13 -1 -16 8 -8 36 5 36 17 0 13 -27 13 -35 -1z"/>
<path d="M1997 8658 c6 -11 51 -10 58 1 3 5 -10 9 -29 8 -19 -1 -32 -5 -29 -9z"/>
<path d="M5830 8630 c-6 -11 -7 -20 -3 -20 5 0 14 9 21 20 7 11 8 20 2 20 -5
0 -14 -9 -20 -20z"/>
<path d="M6270 8631 c-28 -5 -31 -8 -17 -14 30 -12 79 -9 75 5 -5 15 -15 17
-58 9z"/>
<path d="M2011 8581 c-21 -14 4 -23 44 -15 19 3 38 10 41 15 7 12 -67 11 -85
0z"/>
<path d="M6400 8560 c0 -5 5 -10 11 -10 5 0 7 5 4 10 -3 6 -8 10 -11 10 -2 0
-4 -4 -4 -10z"/>
<path d="M6438 8553 c6 -2 18 -2 25 0 6 3 1 5 -13 5 -14 0 -19 -2 -12 -5z"/>
<path d="M6490 8550 c20 -13 33 -13 25 0 -3 6 -14 10 -23 10 -15 0 -15 -2 -2
-10z"/>
<path d="M6375 8539 c-9 -13 -7 -15 33 -22 38 -8 43 9 6 23 -31 12 -31 12 -39
-1z"/>
<path d="M2193 8503 c9 -2 23 -2 30 0 6 3 -1 5 -18 5 -16 0 -22 -2 -12 -5z"/>
<path d="M2735 8430 c3 -5 8 -10 11 -10 2 0 4 5 4 10 0 6 -5 10 -11 10 -5 0
-7 -4 -4 -10z"/>
<path d="M2108 8398 c8 -8 17 -8 34 0 22 10 21 11 -11 11 -27 1 -32 -2 -23
-11z"/>
<path d="M2725 8390 c-3 -5 -1 -10 4 -10 6 0 11 5 11 10 0 6 -2 10 -4 10 -3 0
-8 -4 -11 -10z"/>
<path d="M6879 8330 c13 -11 28 -20 35 -20 6 0 0 9 -14 20 -33 26 -52 25 -21
0z"/>
<path d="M5436 8225 c4 -8 10 -12 15 -9 11 6 2 24 -11 24 -5 0 -7 -7 -4 -15z"/>
<path d="M5415 8210 c-3 -5 -1 -10 4 -10 6 0 11 5 11 10 0 6 -2 10 -4 10 -3 0
-8 -4 -11 -10z"/>
<path d="M2650 8020 c0 -5 6 -10 14 -10 8 0 18 5 21 10 3 6 -3 10 -14 10 -12
0 -21 -4 -21 -10z"/>
<path d="M6778 7843 c7 -3 16 -2 19 1 4 3 -2 6 -13 5 -11 0 -14 -3 -6 -6z"/>
<path d="M6815 7840 c3 -5 10 -10 16 -10 5 0 9 5 9 10 0 6 -7 10 -16 10 -8 0
-12 -4 -9 -10z"/>
<path d="M6705 7830 c3 -5 12 -7 20 -3 21 7 19 13 -6 13 -11 0 -18 -4 -14 -10z"/>
<path d="M5616 7751 c-3 -4 3 -16 14 -26 12 -11 18 -26 15 -35 -4 -12 1 -19
14 -23 14 -3 22 1 26 14 4 11 16 19 27 19 17 0 19 2 7 16 -8 10 -21 13 -36 9
-16 -4 -26 0 -35 15 -14 22 -24 25 -32 11z"/>
<path d="M5742 7748 c5 -15 28 -23 28 -10 0 5 -7 13 -16 16 -10 4 -14 1 -12
-6z"/>
<path d="M5852 7724 c-16 -17 -7 -54 13 -54 11 0 12 6 6 23 -4 12 -6 28 -4 35
6 16 1 15 -15 -4z"/>
<path d="M5893 7733 c-18 -7 -16 -33 2 -33 8 0 15 9 15 20 0 11 -1 20 -2 19
-2 0 -9 -3 -15 -6z"/>
<path d="M5400 7669 c0 -6 9 -13 20 -16 11 -3 20 -9 20 -14 0 -4 12 -20 26
-36 21 -22 27 -25 34 -13 14 22 12 40 -5 40 -9 0 -15 9 -15 21 0 15 -5 19 -15
15 -8 -3 -26 -1 -40 4 -17 6 -25 6 -25 -1z"/>
<path d="M5990 7665 c0 -8 5 -15 10 -15 6 0 10 7 10 15 0 8 -4 15 -10 15 -5 0
-10 -7 -10 -15z"/>
<path d="M6120 7551 c0 -5 5 -13 10 -16 6 -3 10 -2 10 4 0 5 -4 13 -10 16 -5
3 -10 2 -10 -4z"/>
<path d="M2727 7513 c-4 -3 -7 -12 -7 -20 0 -11 5 -11 20 -3 11 6 20 15 20 20
0 11 -23 13 -33 3z"/>
<path d="M6150 7514 c0 -17 18 -36 30 -32 7 2 4 10 -9 22 -12 11 -21 15 -21
10z"/>
<path d="M5460 7466 c0 -2 7 -9 15 -16 9 -7 15 -8 15 -2 0 5 -7 12 -15 16 -8
3 -15 4 -15 2z"/>
<path d="M2288 7443 c7 -3 16 -2 19 1 4 3 -2 6 -13 5 -11 0 -14 -3 -6 -6z"/>
<path d="M6180 7431 c0 -6 4 -13 10 -16 6 -3 7 1 4 9 -7 18 -14 21 -14 7z"/>
<path d="M5552 7418 c6 -17 36 -34 45 -24 4 4 -1 14 -11 22 -24 17 -39 18 -34
2z"/>
<path d="M6183 7345 c7 -13 14 -20 15 -14 5 14 -6 39 -17 39 -5 0 -4 -11 2
-25z"/>
<path d="M2625 7300 c21 -21 42 -37 47 -34 14 9 9 34 -9 41 -10 4 -22 12 -26
20 -4 7 -18 13 -30 13 -19 0 -17 -4 18 -40z"/>
<path d="M6280 7276 c0 -17 42 -76 51 -70 5 3 9 7 9 10 0 3 -4 2 -10 -1 -5 -3
-10 0 -10 8 0 16 -39 68 -40 53z"/>
<path d="M6250 7227 c0 -2 9 -14 20 -27 22 -26 27 -15 6 13 -12 15 -26 23 -26
14z"/>
<path d="M2192 7171 c-29 -18 -8 -46 47 -64 62 -21 76 -15 39 16 -14 12 -28
30 -31 40 -7 18 -33 22 -55 8z"/>
<path d="M6340 7156 c0 -9 5 -16 10 -16 6 0 10 4 10 9 0 6 -4 13 -10 16 -5 3
-10 -1 -10 -9z"/>
<path d="M2365 7140 c3 -5 13 -10 21 -10 8 0 12 5 9 10 -3 6 -13 10 -21 10 -8
0 -12 -4 -9 -10z"/>
<path d="M6320 7119 c0 -6 18 -28 40 -48 22 -20 40 -44 40 -54 0 -9 5 -17 10
-17 6 0 10 11 10 25 0 19 -10 31 -35 46 -19 12 -35 27 -35 34 0 7 -7 15 -15
19 -8 3 -15 0 -15 -5z"/>
<path d="M6381 7024 c0 -11 3 -14 6 -6 3 7 2 16 -1 19 -3 4 -6 -2 -5 -13z"/>
<path d="M6352 6980 c0 -14 2 -19 5 -12 2 6 2 18 0 25 -3 6 -5 1 -5 -13z"/>
<path d="M6310 6921 c0 -5 5 -13 11 -16 6 -4 8 -13 6 -19 -3 -7 -1 -19 4 -27
7 -10 9 -2 7 25 -2 22 -9 41 -15 44 -7 2 -13 -1 -13 -7z"/>
<path d="M1943 6885 c-3 -29 1 -37 26 -50 16 -8 31 -19 33 -25 4 -14 73 -30
88 -20 9 6 9 9 -1 13 -10 4 -10 6 -1 6 20 1 14 39 -8 51 -12 6 -33 10 -48 8
-29 -3 -62 18 -62 39 0 30 -25 10 -27 -22z"/>
<path d="M2000 6890 c0 -5 7 -10 16 -10 8 0 12 5 9 10 -3 6 -10 10 -16 10 -5
0 -9 -4 -9 -10z"/>
<path d="M6441 6864 c0 -11 3 -14 6 -6 3 7 2 16 -1 19 -3 4 -6 -2 -5 -13z"/>
<path d="M6290 6851 c0 -5 5 -13 10 -16 6 -3 10 -2 10 4 0 5 -4 13 -10 16 -5
3 -10 2 -10 -4z"/>
<path d="M6360 6811 c0 -6 4 -13 10 -16 6 -3 7 1 4 9 -7 18 -14 21 -14 7z"/>
<path d="M6311 6788 c1 -7 5 -24 9 -38 8 -24 8 -24 9 7 1 17 -3 35 -9 38 -5 3
-10 0 -9 -7z"/>
<path d="M2160 6769 c0 -11 25 -22 39 -17 6 1 -1 8 -14 15 -14 6 -25 7 -25 2z"/>
<path d="M1828 6724 c-13 -12 36 -52 75 -62 45 -12 157 -23 157 -17 0 3 -13
11 -30 20 -16 9 -30 13 -30 9 0 -3 -11 1 -25 10 -13 9 -31 16 -40 16 -8 0 -15
4 -15 8 0 4 -16 6 -36 4 -21 -3 -39 0 -43 7 -4 6 -10 9 -13 5z"/>
<path d="M6125 6710 c-3 -5 -1 -10 4 -10 6 0 11 5 11 10 0 6 -2 10 -4 10 -3 0
-8 -4 -11 -10z"/>
<path d="M6118 6683 c7 -3 16 -2 19 1 4 3 -2 6 -13 5 -11 0 -14 -3 -6 -6z"/>
<path d="M730 6330 c0 -5 7 -10 15 -10 8 0 15 5 15 10 0 6 -7 10 -15 10 -8 0
-15 -4 -15 -10z"/>
<path d="M960 6325 c0 -8 5 -15 10 -15 6 0 22 -12 35 -26 44 -48 169 -74 273
-58 46 7 58 30 20 38 -97 20 -135 30 -145 38 -6 5 -26 11 -43 13 -17 2 -56 9
-87 15 -31 5 -58 10 -60 10 -2 0 -3 -7 -3 -15z"/>
<path d="M900 6300 c0 -5 5 -10 11 -10 5 0 7 5 4 10 -3 6 -8 10 -11 10 -2 0
-4 -4 -4 -10z"/>
<path d="M673 6273 c-4 -11 3 -24 22 -41 21 -18 30 -21 34 -11 2 7 -1 15 -6
16 -6 2 -8 15 -5 28 3 20 0 25 -17 25 -12 0 -24 -7 -28 -17z"/>
<path d="M535 6210 c3 -5 10 -10 16 -10 5 0 9 5 9 10 0 6 -7 10 -16 10 -8 0
-12 -4 -9 -10z"/>
<path d="M675 5920 c-8 -26 -1 -37 30 -42 31 -6 34 20 5 45 -25 21 -27 21 -35
-3z"/>
<path d="M6271 5884 c0 -11 3 -14 6 -6 3 7 2 16 -1 19 -3 4 -6 -2 -5 -13z"/>
<path d="M496 5505 c3 -12 14 -26 25 -33 16 -11 19 -9 19 9 0 12 -5 19 -12 16
-7 -2 -18 3 -25 12 -10 14 -11 13 -7 -4z"/>
<path d="M6185 5410 c-4 -6 3 -10 14 -10 25 0 27 6 6 13 -8 4 -17 2 -20 -3z"/>
<path d="M6005 5390 c-3 -5 7 -15 22 -21 15 -6 36 -15 45 -20 13 -7 16 -5 12
6 -3 8 -20 21 -37 30 -36 18 -34 18 -42 5z"/>
<path d="M455 5070 c-3 -5 1 -10 10 -10 9 0 13 5 10 10 -3 6 -8 10 -10 10 -2
0 -7 -4 -10 -10z"/>
<path d="M5460 4355 c7 -8 24 -15 38 -15 25 0 25 1 6 15 -10 8 -27 15 -38 15
-15 0 -16 -3 -6 -15z"/>
<path d="M5565 4210 c3 -5 8 -10 11 -10 2 0 4 5 4 10 0 6 -5 10 -11 10 -5 0
-7 -4 -4 -10z"/>
<path d="M5500 3930 c0 -6 23 -22 51 -35 28 -13 68 -43 89 -66 35 -40 38 -42
44 -21 15 46 -87 132 -155 132 -16 0 -29 -5 -29 -10z"/>
<path d="M5361 3823 c47 -27 99 -35 106 -17 5 14 -72 42 -116 42 l-35 1 45
-26z"/>
<path d="M5273 3685 c0 -12 14 -15 66 -14 36 1 57 3 46 6 -11 3 -24 9 -29 14
-17 16 -83 11 -83 -6z"/>
<path d="M771 3209 c-16 -13 -21 -23 -14 -30 6 -6 16 -3 27 10 26 28 16 43
-13 20z"/>
<path d="M792 3165 c-11 -13 -9 -15 8 -15 11 0 20 7 20 15 0 19 -11 19 -28 0z"/>
<path d="M5389 2885 c-3 -2 -23 -7 -45 -11 -21 -3 -59 -15 -84 -26 -42 -18
-43 -21 -22 -29 35 -13 103 4 151 39 33 24 39 32 24 32 -11 0 -22 -2 -24 -5z"/>
<path d="M3510 2775 c0 -13 -8 -41 -17 -61 -17 -36 -17 -36 6 -55 39 -31 58
-25 63 21 2 22 0 40 -4 40 -5 0 -8 7 -8 15 0 9 -7 18 -15 21 -8 4 -15 11 -15
16 0 7 5 6 13 -1 15 -12 27 -5 27 16 0 7 -11 13 -25 13 -20 0 -25 -5 -25 -25z"/>
<path d="M558 2745 c-6 -29 0 -32 18 -7 17 22 17 32 0 32 -7 0 -16 -11 -18
-25z"/>
<path d="M480 2686 c0 -32 -24 -65 -50 -71 -26 -6 -90 -64 -90 -83 0 -5 7 -15
15 -22 18 -15 75 -4 75 14 0 7 11 30 25 50 14 20 25 48 25 62 0 18 5 24 16 22
25 -4 28 19 5 32 -17 9 -21 8 -21 -4z"/>
<path d="M3520 2604 c0 -8 5 -12 10 -9 6 4 8 11 5 16 -9 14 -15 11 -15 -7z"/>
<path d="M5030 2615 c0 -5 5 -17 10 -25 5 -8 10 -10 10 -5 0 6 -5 17 -10 25
-5 8 -10 11 -10 5z"/>
<path d="M3340 2546 c0 -8 5 -18 10 -21 6 -3 10 1 10 9 0 8 -4 18 -10 21 -5 3
-10 -1 -10 -9z"/>
<path d="M4845 2550 c3 -5 8 -10 11 -10 2 0 4 5 4 10 0 6 -5 10 -11 10 -5 0
-7 -4 -4 -10z"/>
<path d="M140 2414 c0 -11 29 -34 34 -26 2 4 -4 13 -15 20 -10 7 -19 10 -19 6z"/>
<path d="M4864 2368 c-4 -6 3 -19 16 -30 37 -30 52 -19 30 23 -12 21 -35 25
-46 7z"/>
<path d="M160 2330 c0 -5 5 -10 11 -10 5 0 7 5 4 10 -3 6 -8 10 -11 10 -2 0
-4 -4 -4 -10z"/>
<path d="M4600 2090 c0 -5 9 -10 20 -10 11 0 20 5 20 10 0 6 -9 10 -20 10 -11
0 -20 -4 -20 -10z"/>
<path d="M4478 2054 c6 -31 26 -41 47 -24 14 11 13 15 -4 31 -30 28 -49 24
-43 -7z"/>
<path d="M4681 2066 c-15 -18 -10 -29 12 -24 9 2 12 9 8 21 -6 17 -8 18 -20 3z"/>
<path d="M4307 2064 c-3 -3 1 -13 9 -21 8 -9 18 -12 21 -9 4 4 0 13 -8 21 -8
9 -18 13 -22 9z"/>
<path d="M4382 2018 c-20 -20 -14 -35 18 -48 34 -14 60 -1 60 30 0 29 -55 41
-78 18z"/>
<path d="M3912 1743 c-26 -4 -36 -11 -44 -34 -6 -17 -15 -28 -22 -26 -14 5
-46 -11 -46 -23 0 -13 58 -1 90 18 26 15 78 73 63 70 -4 0 -23 -3 -41 -5z"/>
<path d="M3712 1544 c-14 -10 -22 -25 -22 -45 0 -33 7 -35 36 -11 58 46 45 98
-14 56z"/>
<path d="M400 1450 c0 -5 7 -10 16 -10 8 0 12 5 9 10 -3 6 -10 10 -16 10 -5 0
-9 -4 -9 -10z"/>
<path d="M7288 8103 c7 -3 16 -2 19 1 4 3 -2 6 -13 5 -11 0 -14 -3 -6 -6z"/>
<path d="M6772 7348 c6 -18 28 -21 28 -4 0 9 -7 16 -16 16 -9 0 -14 -5 -12
-12z"/>
</g>
</svg>
